# YAFF font file
# Converted from win95inst.json and win95inst-font.png
# Font type: monochrome_solid

yaff: 1.0
name: Win95Inst Header
family: win95inst-header
encoding: unicode

# Global metrics
pixel-size: 13

# Glyph definitions

# Character:  
u+0020:
    .......
    .......
    .......
    .......
    .......
    .......
    .......
    .......
    .......
    .......
    .......
    .......
    .......
    .......
    .......
    .......
    .......
    .......
    .......
    .......
    .......
    .......
    .......
    .......
    .......
    .......
    .......

# Character: !
u+0021:
    ........
    ........
    ........
    ........
    ...@@...
    ..@@@@..
    ..@@@@..
    ..@@@@..
    ..@@@@..
    ..@@@@..
    ..@@@@..
    ..@@@@..
    ...@@...
    ...@@...
    ...@@...
    ...@@...
    ........
    ...@@...
    ..@@@@..
    ..@@@@..
    ...@@...
    ........
    ........
    ........
    ........
    ........
    ........

# Character: "
u+0022:
    ...........
    ...........
    ...........
    ...........
    ..@@...@@..
    .@@@@.@@@@.
    .@@@@.@@@@.
    ..@@...@@..
    ..@@...@@..
    ..@@...@@..
    ...........
    ...........
    ...........
    ...........
    ...........
    ...........
    ...........
    ...........
    ...........
    ...........
    ...........
    ...........
    ...........
    ...........
    ...........
    ...........
    ...........

# Character: #
u+0023:
    .............
    .............
    .............
    .............
    ...@@@..@@@..
    ...@@@..@@@..
    ...@@@..@@@..
    ...@@@..@@@..
    ...@@@..@@@..
    .@@@@@@@@@@@@
    ..@@@..@@@...
    ..@@@..@@@...
    ..@@@..@@@...
    ..@@@..@@@...
    ..@@@..@@@...
    @@@@@@@@@@@@.
    .@@@..@@@....
    .@@@..@@@....
    .@@@..@@@....
    .@@@..@@@....
    .@@@..@@@....
    .............
    .............
    .............
    .............
    .............
    .............

# Character: $
u+0024:
    .............
    .............
    .............
    ......@@.....
    ......@@.....
    ....@@@@@@@@.
    ...@@@@@@@@@.
    ..@@@.@@.@@@.
    ..@@@.@@..@@.
    ..@@@.@@..@@.
    ..@@@@@@.....
    ...@@@@@.....
    ....@@@@@@...
    ......@@@@@..
    ......@@@@@..
    ......@@@@@@.
    .@@...@@.@@@.
    .@@...@@.@@@.
    .@@@..@@.@@@.
    .@@@@.@@@@@..
    .@@@@@@@@@...
    ......@@.....
    ......@@.....
    ......@@.....
    .............
    .............
    .............

# Character: %
u+0025:
    .....................
    .....................
    .....................
    .....................
    ....@@@@@.....@@@....
    ...@@@.@@@@@@@@@@....
    ..@@@...@@..@@@@.....
    .@@@....@@..@@@......
    .@@@....@@..@@@......
    .@@@...@@..@@@.......
    .@@@..@@..@@@........
    ..@@@@@...@@@........
    .........@@@.........
    ........@@@...@@@@@..
    ........@@@..@@@.@@@.
    .......@@@..@@@...@@.
    ......@@@..@@@....@@.
    ......@@@..@@@....@@.
    .....@@@...@@@...@@..
    ....@@@....@@@..@@...
    ....@@@.....@@@@@....
    .....................
    .....................
    .....................
    .....................
    .....................
    .....................

# Character: &
u+0026:
    -

# Character: '
u+0027:
    .......
    .......
    .......
    .......
    ...@@..
    ..@@@@.
    ..@@@@.
    ...@@..
    ...@@..
    ...@@..
    .......
    .......
    .......
    .......
    .......
    .......
    .......
    .......
    .......
    .......
    .......
    .......
    .......
    .......
    .......
    .......
    .......

# Character: (
u+0028:
    .........
    .........
    .........
    .........
    ......@@.
    .....@@..
    ....@@...
    ...@@@...
    ...@@....
    ..@@@....
    ..@@@....
    .@@@.....
    .@@@.....
    .@@@.....
    .@@@.....
    .@@@.....
    .@@@.....
    .@@@.....
    .@@@.....
    ..@@@....
    ..@@@....
    ...@@....
    ...@@@...
    ....@@...
    .....@@..
    ......@@.
    .........

# Character: )
u+0029:
    .........
    .........
    .........
    .........
    .@@......
    ..@@.....
    ...@@....
    ...@@@...
    ....@@...
    ....@@@..
    ....@@@..
    .....@@@.
    .....@@@.
    .....@@@.
    .....@@@.
    .....@@@.
    .....@@@.
    .....@@@.
    .....@@@.
    .....@@@.
    ....@@@..
    ....@@@..
    ....@@...
    ...@@@...
    ...@@....
    ..@@.....
    .........

# Character: *
u+002a:
    .........
    .........
    .........
    ....@@...
    ...@@@@..
    .@@@@@@@@
    .@@@@@@@@
    ...@@@@..
    .@@@@@@@@
    .@@@@@@@@
    ...@@@@..
    ....@@...
    .........
    .........
    .........
    .........
    .........
    .........
    .........
    .........
    .........
    .........
    .........
    .........
    .........
    .........
    .........

# Character: +
u+002b:
    ...............
    ...............
    ...............
    ...............
    ...............
    ...............
    ...............
    ...............
    ...............
    ...............
    ......@@@......
    ......@@@......
    ......@@@......
    ......@@@......
    ..@@@@@@@@@@@..
    ......@@@......
    ......@@@......
    ......@@@......
    ......@@@......
    ...............
    ...............
    ...............
    ...............
    ...............
    ...............
    ...............
    ...............

# Character: ,
u+002c:
    .......
    .......
    .......
    .......
    .......
    .......
    .......
    .......
    .......
    .......
    .......
    .......
    .......
    .......
    .......
    .......
    .......
    ...@@..
    ..@@@@.
    ..@@@@.
    ...@@@.
    ....@@.
    ....@@.
    ...@@..
    .......
    .......
    .......

# Character: -
u+002d:
    .........
    .........
    .........
    .........
    .........
    .........
    .........
    .........
    .........
    .........
    .........
    .........
    .........
    .........
    .@@@@@@@.
    .........
    .........
    .........
    .........
    .........
    .........
    .........
    .........
    .........
    .........
    .........
    .........

# Character: .
u+002e:
    .......
    .......
    .......
    .......
    .......
    .......
    .......
    .......
    .......
    .......
    .......
    .......
    .......
    .......
    .......
    .......
    .......
    ...@@..
    ..@@@@.
    ..@@@@.
    ...@@..
    .......
    .......
    .......
    .......
    .......
    .......

# Character: /
u+002f:
    ........
    ........
    ........
    ........
    .....@@@
    .....@@@
    .....@@@
    ....@@@.
    ....@@@.
    ....@@@.
    ...@@@..
    ...@@@..
    ...@@@..
    ..@@@...
    ..@@@...
    ..@@@...
    .@@@....
    .@@@....
    .@@@....
    @@@.....
    @@@.....
    @@@.....
    ........
    ........
    ........
    ........
    ........

# Character: 0
u+0030:
    .............
    .............
    .............
    .............
    .............
    ....@@@@@....
    ...@@@.@@@...
    ..@@@...@@@..
    ..@@@...@@@..
    .@@@.....@@@.
    .@@@.....@@@.
    .@@@.....@@@.
    .@@@.....@@@.
    .@@@.....@@@.
    .@@@.....@@@.
    .@@@.....@@@.
    .@@@.....@@@.
    ..@@@...@@@..
    ..@@@...@@@..
    ...@@@.@@@...
    ....@@@@@....
    .............
    .............
    .............
    .............
    .............
    .............

# Character: 1
u+0031:
    .............
    .............
    .............
    .............
    .............
    ......@@.....
    .....@@@.....
    ....@@@@.....
    ...@@@@@.....
    .....@@@.....
    .....@@@.....
    .....@@@.....
    .....@@@.....
    .....@@@.....
    .....@@@.....
    .....@@@.....
    .....@@@.....
    .....@@@.....
    .....@@@.....
    ....@@@@@....
    ...@@@@@@@...
    .............
    .............
    .............
    .............
    .............
    .............

# Character: 2
u+0032:
    .............
    .............
    .............
    .............
    .............
    ....@@@@@....
    ..@@@.@@@@@..
    ..@@....@@@..
    ........@@@@.
    .........@@@.
    .........@@@.
    .........@@..
    ........@@@..
    ........@@...
    .......@@....
    ......@@.....
    .....@@......
    ....@@....@@.
    ...@@....@@@.
    ..@@@@@@@@@..
    .@@@@@@@@@@..
    .............
    .............
    .............
    .............
    .............
    .............

# Character: 3
u+0033:
    .............
    .............
    .............
    .............
    .............
    ....@@@@@....
    ..@@@..@@@...
    ..@@...@@@@..
    ........@@@..
    ........@@@..
    .......@@@...
    ....@@@@@@...
    ......@@@@@..
    ........@@@..
    ........@@@@.
    .........@@@.
    .........@@@.
    .........@@@.
    .@@@....@@@..
    .@@@@..@@@@..
    ...@@@@@@....
    .............
    .............
    .............
    .............
    .............
    .............

# Character: 4
u+0034:
    .............
    .............
    .............
    .............
    .............
    .......@@@@..
    .......@@@@..
    ......@@@@@..
    .....@@@@@@..
    ....@@@.@@@..
    ....@@..@@@..
    ...@@@..@@@..
    ..@@@...@@@..
    .@@@....@@@..
    .@@@....@@@..
    .@@@@@@@@@@@@
    .@@@@@@@@@@@@
    ........@@@..
    ........@@@..
    ........@@@..
    ........@@@..
    .............
    .............
    .............
    .............
    .............
    .............

# Character: 5
u+0035:
    .............
    .............
    .............
    .............
    .............
    ...@@@@@@@@..
    ...@@@@@@@...
    ...@@........
    ..@@.........
    ..@@.........
    ..@@@@@@@....
    ..@@@@@@@@@..
    .......@@@@..
    ........@@@@.
    .........@@@.
    .........@@@.
    .........@@@.
    .........@@@.
    .@@@@...@@@..
    .@@@@@.@@@@..
    ...@@@@@@....
    .............
    .............
    .............
    .............
    .............
    .............

# Character: 6
u+0036:
    .............
    .............
    .............
    .............
    .............
    .......@@@...
    .....@@@.....
    ....@@@......
    ...@@@.......
    ..@@@........
    ..@@@........
    .@@@@@@@@....
    .@@@@@.@@@@..
    .@@@@...@@@..
    .@@@.....@@@.
    .@@@.....@@@.
    .@@@.....@@@.
    .@@@.....@@@.
    ..@@@...@@@..
    ..@@@@.@@@@..
    ....@@@@@....
    .............
    .............
    .............
    .............
    .............
    .............

# Character: 7
u+0037:
    .............
    .............
    .............
    .............
    .............
    ..@@@@@@@@@@.
    ..@@@@@@@@@..
    .@@@....@@...
    .@@.....@@...
    .......@@@...
    .......@@....
    .......@@....
    ......@@@....
    ......@@.....
    .....@@@.....
    .....@@......
    .....@@......
    ....@@@......
    ....@@.......
    ...@@@.......
    ...@@........
    .............
    .............
    .............
    .............
    .............
    .............

# Character: 8
u+0038:
    .............
    .............
    .............
    .............
    .............
    ....@@@@@....
    ..@@@@.@@@@..
    ..@@@...@@@..
    .@@@.....@@@.
    .@@@.....@@@.
    ..@@@...@@@..
    ...@@@@@@@...
    ....@@@@@....
    ...@@@@@@@...
    ..@@@..@@@@..
    .@@@....@@@@.
    .@@@.....@@@.
    .@@@.....@@@.
    ..@@@...@@@..
    ..@@@@.@@@@..
    ....@@@@@....
    .............
    .............
    .............
    .............
    .............
    .............

# Character: 9
u+0039:
    .............
    .............
    .............
    .............
    .............
    ....@@@@@....
    ..@@@@.@@@@..
    ..@@@...@@@..
    .@@@.....@@@.
    .@@@.....@@@.
    .@@@.....@@@.
    .@@@.....@@@.
    ..@@@...@@@@.
    ..@@@@.@@@@@.
    ....@@@@@@@@.
    ........@@@..
    ........@@@..
    .......@@@...
    ......@@@....
    .....@@@.....
    ...@@@.......
    .............
    .............
    .............
    .............
    .............
    .............

# Character: :
u+003a:
    ........
    ........
    ........
    ........
    ........
    ........
    ........
    ........
    ........
    ........
    ...@@...
    ..@@@@..
    ..@@@@..
    ...@@...
    ........
    ........
    ........
    ...@@...
    ..@@@@..
    ..@@@@..
    ...@@...
    ........
    ........
    ........
    ........
    ........
    ........

# Character: ;
u+003b:
    ........
    ........
    ........
    ........
    ........
    ........
    ........
    ........
    ........
    ........
    ...@@...
    ..@@@@..
    ..@@@@..
    ...@@...
    ........
    ........
    ........
    ...@@...
    ..@@@@..
    ..@@@@..
    ...@@@..
    ....@@..
    ....@@..
    ...@@...
    ........
    ........
    ........

# Character: <
u+003c:
    ...............
    ...............
    ...............
    ...............
    ...............
    ...............
    ...............
    ..........@@@..
    ........@@@@...
    .......@@@@....
    .....@@@@......
    ....@@@@.......
    ..@@@@.........
    .@@@@..........
    ..@@@@.........
    ....@@@@.......
    .....@@@@......
    .......@@@@....
    ........@@@@...
    ..........@@@..
    ...............
    ...............
    ...............
    ...............
    ...............
    ...............
    ...............

# Character: =
u+003d:
    ...............
    ...............
    ...............
    ...............
    ...............
    ...............
    ...............
    ...............
    ...............
    ...............
    .@@@@@@@@@@@@@.
    .@@@@@@@@@@@@@.
    ...............
    ...............
    ...............
    .@@@@@@@@@@@@@.
    .@@@@@@@@@@@@@.
    ...............
    ...............
    ...............
    ...............
    ...............
    ...............
    ...............
    ...............
    ...............
    ...............

# Character: >
u+003e:
    ...............
    ...............
    ...............
    ...............
    ...............
    ...............
    ...............
    ..@@@..........
    ...@@@@........
    ....@@@@.......
    ......@@@@.....
    .......@@@@....
    .........@@@@..
    ..........@@@@.
    .........@@@@..
    .......@@@@....
    ......@@@@.....
    ....@@@@.......
    ...@@@@........
    ..@@@..........
    ...............
    ...............
    ...............
    ...............
    ...............
    ...............
    ...............

# Character: ?
u+003f:
    ............
    ............
    ............
    ............
    ...@@@@@@...
    ..@@@.@@@@..
    .@@@...@@@@.
    .@@@@..@@@@.
    .@@@@..@@@@.
    ..@@...@@@..
    .......@@@..
    ......@@@...
    .....@@@....
    .....@@.....
    .....@@.....
    .....@@.....
    ............
    .....@@.....
    ....@@@@....
    ....@@@@....
    .....@@.....
    ............
    ............
    ............
    ............
    ............
    ............

# Character: @
u+0040:
    ........................
    ........................
    ........................
    ........................
    ........................
    ........................
    ........................
    ........@@@@@@@@........
    ......@@@@....@@@@......
    ....@@@@........@@@@....
    ...@@@............@@@...
    ..@@@....@@@@@@....@@@..
    ..@@@...@@@..@@@@..@@@..
    .@@@...@@@....@@@...@@@.
    .@@@..@@@.....@@@...@@@.
    .@@@..@@@....@@@....@@@.
    .@@@..@@@....@@@...@@@..
    .@@@...@@@..@@@@@.@@@@..
    ..@@@...@@@@@@@@@@@@....
    ..@@@...................
    ...@@@..................
    ....@@@@................
    ......@@@@....@@@.......
    ........@@@@@@@.........
    ........................
    ........................
    ........................

# Character: A
u+0041:
    ..................
    ..................
    ..................
    ..................
    ..................
    ........@@........
    ........@@........
    .......@@@@.......
    .......@@@@.......
    ......@@@@@@......
    ......@@.@@@......
    .....@@@.@@@@.....
    .....@@...@@@.....
    ....@@@...@@@@....
    ....@@.....@@@....
    ...@@@@@@@@@@@@...
    ...@@.......@@@...
    ..@@@.......@@@@..
    ..@@.........@@@..
    .@@@.........@@@@.
    @@@@@@.....@@@@@@@
    ..................
    ..................
    ..................
    ..................
    ..................
    ..................

# Character: B
u+0042:
    .................
    .................
    .................
    .................
    .................
    .@@@@@@@@@@@@....
    ...@@@.....@@@...
    ...@@@......@@@..
    ...@@@......@@@..
    ...@@@......@@@..
    ...@@@......@@@..
    ...@@@.....@@@...
    ...@@@@@@@@@@@...
    ...@@@.....@@@@..
    ...@@@......@@@..
    ...@@@.......@@@.
    ...@@@.......@@@.
    ...@@@.......@@@.
    ...@@@......@@@..
    ...@@@.....@@@@..
    .@@@@@@@@@@@@....
    .................
    .................
    .................
    .................
    .................
    .................

# Character: C
u+0043:
    .................
    .................
    .................
    .................
    .................
    ......@@@@@@@.@@.
    ....@@@@...@@@@@.
    ...@@@.......@@@.
    ..@@@.........@@.
    ..@@@.........@@.
    .@@@.............
    .@@@.............
    .@@@.............
    .@@@.............
    .@@@.............
    .@@@.............
    ..@@@............
    ..@@@.........@@.
    ...@@@.......@@..
    ....@@@@...@@@...
    ......@@@@@@.....
    .................
    .................
    .................
    .................
    .................
    .................

# Character: D
u+0044:
    ..................
    ..................
    ..................
    ..................
    ..................
    .@@@@@@@@@@@......
    ...@@@....@@@@....
    ...@@@......@@@...
    ...@@@.......@@@..
    ...@@@.......@@@..
    ...@@@........@@@.
    ...@@@........@@@.
    ...@@@........@@@.
    ...@@@........@@@.
    ...@@@........@@@.
    ...@@@........@@@.
    ...@@@.......@@@..
    ...@@@.......@@@..
    ...@@@......@@@...
    ...@@@....@@@@....
    .@@@@@@@@@@@......
    ..................
    ..................
    ..................
    ..................
    ..................
    ..................

# Character: E
u+0045:
    ................
    ................
    ................
    ................
    ................
    .@@@@@@@@@@@@@..
    ...@@@.....@@@..
    ...@@@......@@..
    ...@@@..........
    ...@@@..........
    ...@@@...@@.....
    ...@@@...@@.....
    ...@@@@@@@@.....
    ...@@@...@@.....
    ...@@@...@@.....
    ...@@@..........
    ...@@@..........
    ...@@@..........
    ...@@@.......@@.
    ...@@@......@@@.
    .@@@@@@@@@@@@@..
    ................
    ................
    ................
    ................
    ................
    ................

# Character: F
u+0046:
    ..............
    ..............
    ..............
    ..............
    ..............
    .@@@@@@@@@@@@@
    ...@@@.....@@@
    ...@@@......@@
    ...@@@........
    ...@@@........
    ...@@@...@@...
    ...@@@...@@...
    ...@@@@@@@@...
    ...@@@...@@...
    ...@@@...@@...
    ...@@@........
    ...@@@........
    ...@@@........
    ...@@@........
    ...@@@........
    .@@@@@@@......
    ..............
    ..............
    ..............
    ..............
    ..............
    ..............

# Character: G
u+0047:
    ..................
    ..................
    ..................
    ..................
    ..................
    ......@@@@@@.@@...
    ....@@@@...@@@@...
    ...@@@......@@@...
    ..@@@........@@...
    ..@@@........@@...
    .@@@..............
    .@@@..............
    .@@@..............
    .@@@.......@@@@@@@
    .@@@.........@@@..
    .@@@.........@@@..
    ..@@@........@@@..
    ..@@@........@@@..
    ...@@@.......@@...
    ....@@@@...@@@....
    ......@@@@@@......
    ..................
    ..................
    ..................
    ..................
    ..................
    ..................

# Character: H
u+0048:
    ..................
    ..................
    ..................
    ..................
    ..................
    .@@@@@@@..@@@@@@@.
    ...@@@......@@@...
    ...@@@......@@@...
    ...@@@......@@@...
    ...@@@......@@@...
    ...@@@......@@@...
    ...@@@......@@@...
    ...@@@@@@@@@@@@...
    ...@@@......@@@...
    ...@@@......@@@...
    ...@@@......@@@...
    ...@@@......@@@...
    ...@@@......@@@...
    ...@@@......@@@...
    ...@@@......@@@...
    .@@@@@@@..@@@@@@@.
    ..................
    ..................
    ..................
    ..................
    ..................
    ..................

# Character: I
u+0049:
    .........
    .........
    .........
    .........
    .........
    .@@@@@@@.
    ...@@@...
    ...@@@...
    ...@@@...
    ...@@@...
    ...@@@...
    ...@@@...
    ...@@@...
    ...@@@...
    ...@@@...
    ...@@@...
    ...@@@...
    ...@@@...
    ...@@@...
    ...@@@...
    .@@@@@@@.
    .........
    .........
    .........
    .........
    .........
    .........

# Character: J
u+004a:
    ..........
    ..........
    ..........
    ..........
    ..........
    ..@@@@@@@.
    ....@@@...
    ....@@@...
    ....@@@...
    ....@@@...
    ....@@@...
    ....@@@...
    ....@@@...
    ....@@@...
    ....@@@...
    ....@@@...
    ....@@@...
    ....@@@...
    @@@.@@@...
    @@@.@@@...
    .@@@@@....
    ..........
    ..........
    ..........
    ..........
    ..........
    ..........

# Character: K
u+004b:
    ..................
    ..................
    ..................
    ..................
    ..................
    .@@@@@@@.@@@@@@@..
    ...@@@.....@@@....
    ...@@@....@@@.....
    ...@@@...@@@......
    ...@@@..@@@.......
    ...@@@.@@@........
    ...@@@@@@.........
    ...@@@@@@.........
    ...@@@@@@@........
    ...@@@.@@@@.......
    ...@@@..@@@@......
    ...@@@...@@@@.....
    ...@@@....@@@@....
    ...@@@.....@@@@...
    ...@@@......@@@@..
    .@@@@@@@..@@@@@@@@
    ..................
    ..................
    ..................
    ..................
    ..................
    ..................

# Character: L
u+004c:
    ................
    ................
    ................
    ................
    ................
    .@@@@@@@@.......
    ...@@@..........
    ...@@@..........
    ...@@@..........
    ...@@@..........
    ...@@@..........
    ...@@@..........
    ...@@@..........
    ...@@@..........
    ...@@@..........
    ...@@@..........
    ...@@@..........
    ...@@@..........
    ...@@@.......@@.
    ...@@@......@@@.
    .@@@@@@@@@@@@@..
    ................
    ................
    ................
    ................
    ................
    ................

# Character: M
u+004d:
    ......................
    ......................
    ......................
    ......................
    ......................
    .@@@@@@........@@@@@@.
    ...@@@@........@@@@...
    ...@@@@........@@@@...
    ...@@@@@......@@@@@...
    ...@@@@@......@@@@@...
    ...@@@@@@....@@@@@@...
    ...@@.@@@....@@.@@@...
    ...@@.@@@....@@.@@@...
    ...@@.@@@@..@@@.@@@...
    ...@@..@@@..@@..@@@...
    ...@@..@@@@@@@..@@@...
    ...@@...@@@@@...@@@...
    ...@@...@@@@@...@@@...
    ...@@...@@@@@...@@@...
    ...@@....@@@....@@@...
    .@@@@@@..@@@..@@@@@@@.
    ......................
    ......................
    ......................
    ......................
    ......................
    ......................

# Character: N
u+004e:
    ..................
    ..................
    ..................
    ..................
    ..................
    .@@@@......@@@@@@.
    ..@@@@.......@@...
    ...@@@@......@@...
    ...@@@@@.....@@...
    ...@@@@@.....@@...
    ...@@@@@@....@@...
    ...@@.@@@@...@@...
    ...@@.@@@@@..@@...
    ...@@..@@@@..@@...
    ...@@...@@@@.@@...
    ...@@....@@@@@@...
    ...@@.....@@@@@...
    ...@@.....@@@@@...
    ...@@......@@@@...
    ...@@.......@@@...
    .@@@@@@......@@...
    ..................
    ..................
    ..................
    ..................
    ..................
    ..................

# Character: O
u+004f:
    ..................
    ..................
    ..................
    ..................
    ..................
    ......@@@@@@......
    ....@@@@..@@@@....
    ...@@@......@@@...
    ..@@@........@@@..
    ..@@@........@@@..
    .@@@..........@@@.
    .@@@..........@@@.
    .@@@..........@@@.
    .@@@..........@@@.
    .@@@..........@@@.
    .@@@..........@@@.
    ..@@@........@@@..
    ..@@@........@@@..
    ...@@@......@@@...
    ....@@@@..@@@@....
    ......@@@@@@......
    ..................
    ..................
    ..................
    ..................
    ..................
    ..................

# Character: P
u+0050:
    ..............
    ..............
    ..............
    ..............
    ..............
    .@@@@@@@@@@...
    ...@@@...@@@@.
    ...@@@....@@@.
    ...@@@.....@@@
    ...@@@.....@@@
    ...@@@.....@@@
    ...@@@....@@@.
    ...@@@...@@@@.
    ...@@@@@@@@...
    ...@@@........
    ...@@@........
    ...@@@........
    ...@@@........
    ...@@@........
    ...@@@........
    .@@@@@@@......
    ..............
    ..............
    ..............
    ..............
    ..............
    ..............

# Character: Q
u+0051:
    ..................
    ..................
    ..................
    ..................
    ..................
    ......@@@@@@......
    ....@@@@..@@@@....
    ...@@@......@@@...
    ..@@@........@@@..
    ..@@@........@@@..
    .@@@..........@@@.
    .@@@..........@@@.
    .@@@..........@@@.
    .@@@..........@@@.
    .@@@..........@@@.
    .@@@..........@@@.
    ..@@@........@@@..
    ..@@@........@@@..
    ...@@@......@@@...
    ....@@@@..@@@@....
    ......@@@@@@......
    .......@@@@@......
    ........@@@@@.....
    ..........@@@@@@..
    ..................
    ..................
    ..................

# Character: R
u+0052:
    .................
    .................
    .................
    .................
    .................
    .@@@@@@@@@@@.....
    ...@@@....@@@@...
    ...@@@.....@@@...
    ...@@@......@@@..
    ...@@@......@@@..
    ...@@@......@@@..
    ...@@@.....@@@...
    ...@@@....@@@@...
    ...@@@@@@@@@.....
    ...@@@...@@@.....
    ...@@@...@@@@....
    ...@@@....@@@....
    ...@@@....@@@@...
    ...@@@.....@@@...
    ...@@@.....@@@@..
    .@@@@@@@....@@@@@
    .................
    .................
    .................
    .................
    .................
    .................

# Character: S
u+0053:
    ..............
    ..............
    ..............
    ..............
    ..............
    ...@@@@@@@@@..
    ..@@@...@@@@..
    .@@@.....@@@..
    .@@@......@@..
    .@@@@.....@@..
    ..@@@@........
    ...@@@@@......
    ....@@@@@@....
    ......@@@@@...
    ........@@@@..
    .........@@@@.
    .@@.......@@@.
    .@@.......@@@.
    .@@@.....@@@..
    .@@@@...@@@@..
    .@@@@@@@@@....
    ..............
    ..............
    ..............
    ..............
    ..............
    ..............

# Character: T
u+0054:
    ...............
    ...............
    ...............
    ...............
    ...............
    @@@@@@@@@@@@@@@
    @@@...@@@...@@@
    @@....@@@....@@
    @@....@@@....@@
    ......@@@......
    ......@@@......
    ......@@@......
    ......@@@......
    ......@@@......
    ......@@@......
    ......@@@......
    ......@@@......
    ......@@@......
    ......@@@......
    ......@@@......
    ....@@@@@@@....
    ...............
    ...............
    ...............
    ...............
    ...............
    ...............

# Character: U
u+0055:
    ..................
    ..................
    ..................
    ..................
    ..................
    .@@@@@@@...@@@@@@.
    ...@@@.......@@...
    ...@@@.......@@...
    ...@@@.......@@...
    ...@@@.......@@...
    ...@@@.......@@...
    ...@@@.......@@...
    ...@@@.......@@...
    ...@@@.......@@...
    ...@@@.......@@...
    ...@@@.......@@...
    ...@@@.......@@...
    ...@@@.......@@...
    ....@@@.....@@....
    ....@@@@...@@@....
    ......@@@@@@......
    ..................
    ..................
    ..................
    ..................
    ..................
    ..................

# Character: V
u+0056:
    ..................
    ..................
    ..................
    ..................
    ..................
    @@@@@@@.....@@@@@@
    .@@@@.........@@@.
    ..@@@.........@@..
    ..@@@@.......@@@..
    ...@@@.......@@...
    ...@@@@.....@@@...
    ....@@@.....@@....
    ....@@@@...@@@....
    .....@@@...@@.....
    .....@@@@.@@@.....
    ......@@@.@@......
    ......@@@@@@......
    .......@@@@.......
    .......@@@@.......
    ........@@........
    ........@@........
    ..................
    ..................
    ..................
    ..................
    ..................
    ..................

# Character: W
u+0057:
    .......................
    .......................
    .......................
    .......................
    .......................
    @@@@@@@@@@@@@@...@@@@@@
    ..@@@....@@@.......@@..
    ..@@@@...@@@@.....@@@..
    ...@@@....@@@.....@@...
    ...@@@....@@@.....@@...
    ...@@@@...@@@@...@@@...
    ....@@@...@@@@...@@....
    ....@@@@.@@@@@@.@@@....
    .....@@@.@@.@@@.@@.....
    .....@@@.@@.@@@.@@.....
    .....@@@@@@.@@@@@@.....
    ......@@@@...@@@@......
    ......@@@@...@@@@......
    .......@@.....@@.......
    .......@@.....@@.......
    .......@@.....@@.......
    .......................
    .......................
    .......................
    .......................
    .......................
    .......................

# Character: X
u+0058:
    ..................
    ..................
    ..................
    ..................
    ..................
    @@@@@@@@...@@@@@@@
    ..@@@@.......@@@..
    ...@@@@.....@@@...
    ....@@@....@@@....
    ....@@@@...@@.....
    .....@@@@.@@@.....
    ......@@@@@@......
    .......@@@@.......
    .......@@@@.......
    ......@@@@@@......
    .....@@@.@@@@.....
    .....@@...@@@@....
    ....@@@....@@@....
    ...@@@.....@@@@...
    ..@@@.......@@@@..
    @@@@@@@...@@@@@@@@
    ..................
    ..................
    ..................
    ..................
    ..................
    ..................

# Character: Y
u+0059:
    ...................
    ...................
    ...................
    ...................
    ...................
    @@@@@@@@....@@@@@@@
    ..@@@@........@@@..
    ...@@@@......@@@...
    ....@@@......@@....
    ....@@@@....@@@....
    .....@@@@..@@@.....
    ......@@@..@@......
    ......@@@@@@@......
    .......@@@@@.......
    ........@@@........
    ........@@@........
    ........@@@........
    ........@@@........
    ........@@@........
    ........@@@........
    ......@@@@@@@......
    ...................
    ...................
    ...................
    ...................
    ...................
    ...................

# Character: Z
u+005a:
    ................
    ................
    ................
    ................
    ................
    ..@@@@@@@@@@@@@.
    ..@@@.....@@@@..
    ..@@......@@@...
    .........@@@@...
    ........@@@@....
    ........@@@.....
    .......@@@@.....
    ......@@@@......
    ......@@@.......
    .....@@@@.......
    ....@@@@........
    ....@@@.........
    ...@@@@.........
    ..@@@@.......@@.
    ..@@@.......@@@.
    .@@@@@@@@@@@@@@.
    ................
    ................
    ................
    ................
    ................
    ................

# Character: [
u+005b:
    .........
    .........
    .........
    .........
    ..@@@@@@.
    ..@@@@...
    ..@@@....
    ..@@@....
    ..@@@....
    ..@@@....
    ..@@@....
    ..@@@....
    ..@@@....
    ..@@@....
    ..@@@....
    ..@@@....
    ..@@@....
    ..@@@....
    ..@@@....
    ..@@@....
    ..@@@....
    ..@@@....
    ..@@@....
    ..@@@....
    ..@@@@...
    ..@@@@@@.
    .........

# Character: \
u+005c:
    ........
    ........
    ........
    ........
    @@@.....
    @@@.....
    @@@.....
    .@@@....
    .@@@....
    .@@@....
    ..@@@...
    ..@@@...
    ..@@@...
    ...@@@..
    ...@@@..
    ...@@@..
    ....@@@.
    ....@@@.
    ....@@@.
    .....@@@
    .....@@@
    ........
    ........
    ........
    ........
    ........
    ........

# Character: ]
u+005d:
    .........
    .........
    .........
    .........
    .@@@@@@..
    ...@@@@..
    ....@@@..
    ....@@@..
    ....@@@..
    ....@@@..
    ....@@@..
    ....@@@..
    ....@@@..
    ....@@@..
    ....@@@..
    ....@@@..
    ....@@@..
    ....@@@..
    ....@@@..
    ....@@@..
    ....@@@..
    ....@@@..
    ....@@@..
    ....@@@..
    ...@@@@..
    .@@@@@@..
    .........

# Character: ^
u+005e:
    ............
    ............
    ............
    ............
    .....@@.....
    ....@@@@....
    ...@@@@@@...
    ..@@@..@@@..
    .@@@....@@@.
    ............
    ............
    ............
    ............
    ............
    ............
    ............
    ............
    ............
    ............
    ............
    ............
    ............
    ............
    ............
    ............
    ............
    ............

# Character: _
u+005f:
    .............
    .............
    .............
    .............
    .............
    .............
    .............
    .............
    .............
    .............
    .............
    .............
    .............
    .............
    .............
    .............
    .............
    .............
    .............
    .............
    .............
    .............
    @@@@@@@@@@@@@
    .............
    .............
    .............
    .............

# Character: `
u+0060:
    .........
    .........
    .........
    .........
    ..@@@....
    ...@@@...
    .....@@..
    .........
    .........
    .........
    .........
    .........
    .........
    .........
    .........
    .........
    .........
    .........
    .........
    .........
    .........
    .........
    .........
    .........
    .........
    .........
    .........

# Character: a
u+0061:
    ............
    ............
    ............
    ............
    ............
    ............
    ............
    ............
    ............
    ............
    ...@@@@@@...
    ..@@@..@@@..
    ..@@@..@@@..
    .......@@@..
    .....@@@@@..
    ...@@@@@@@..
    ..@@@..@@@..
    .@@@...@@@..
    .@@@..@@@@@@
    .@@@@@@@@@@@
    ..@@@@@.@@@.
    ............
    ............
    ............
    ............
    ............
    ............

# Character: b
u+0062:
    .............
    .............
    .............
    .............
    ...@@........
    .@@@@........
    ..@@@........
    ..@@@........
    ..@@@........
    ..@@@........
    ..@@@@@@@@...
    ..@@@@.@@@@..
    ..@@@...@@@@.
    ..@@@...@@@@.
    ..@@@....@@@.
    ..@@@....@@@.
    ..@@@....@@@.
    ..@@@....@@@.
    ..@@@@...@@..
    ...@@@@.@@@..
    .....@@@@....
    .............
    .............
    .............
    .............
    .............
    .............

# Character: c
u+0063:
    ............
    ............
    ............
    ............
    ............
    ............
    ............
    ............
    ............
    ............
    ....@@@@@...
    ..@@@..@@@@.
    ..@@....@@@.
    .@@@........
    .@@@........
    .@@@........
    .@@@@.......
    .@@@@.......
    ..@@@@...@@.
    ..@@@@@.@@@.
    ....@@@@@...
    ............
    ............
    ............
    ............
    ............
    ............

# Character: d
u+0064:
    .............
    .............
    .............
    .............
    .........@@..
    .......@@@@..
    ........@@@..
    ........@@@..
    ........@@@..
    ........@@@..
    ....@@@@@@@..
    ..@@@.@@@@@..
    ..@@...@@@@..
    .@@@....@@@..
    .@@@....@@@..
    .@@@....@@@..
    .@@@....@@@..
    .@@@@...@@@..
    .@@@@...@@@..
    ..@@@@.@@@@@.
    ...@@@@@@@...
    .............
    .............
    .............
    .............
    .............
    .............

# Character: e
u+0065:
    ............
    ............
    ............
    ............
    ............
    ............
    ............
    ............
    ............
    ............
    ....@@@@@...
    ..@@@.@@@@@.
    ..@@...@@@@.
    .@@@@@@@@@@@
    .@@@........
    .@@@........
    .@@@@.......
    .@@@@.......
    ..@@@@...@@.
    ..@@@@@.@@@.
    ....@@@@@...
    ............
    ............
    ............
    ............
    ............
    ............

# Character: f
u+0066:
    ........
    ........
    ........
    ........
    ...@@@@.
    ..@@@@@@
    ..@@@@@@
    ..@@@...
    ..@@@...
    ..@@@...
    .@@@@@@.
    ..@@@...
    ..@@@...
    ..@@@...
    ..@@@...
    ..@@@...
    ..@@@...
    ..@@@...
    ..@@@...
    ..@@@...
    .@@@@@@.
    ........
    ........
    ........
    ........
    ........
    ........

# Character: g
u+0067:
    .............
    .............
    .............
    .............
    .............
    .............
    .............
    .............
    .............
    .............
    ...@@@@@.....
    ..@@@.@@@@...
    .@@@...@@@@@.
    .@@@...@@@...
    .@@@...@@@...
    .@@@...@@@...
    ..@@@.@@@....
    ..@@@@@@.....
    .@@@.........
    .@@@@........
    ..@@@@@@@@...
    ...@@...@@@@.
    .@@@.....@@@@
    @@@.......@@@
    @@@.......@@@
    @@@@.....@@@.
    .@@@@@@@@@...

# Character: h
u+0068:
    .............
    .............
    .............
    .............
    ...@@........
    .@@@@........
    ..@@@........
    ..@@@........
    ..@@@........
    ..@@@........
    ..@@@.@@@@...
    ..@@@@@@@@@..
    ..@@@@..@@@..
    ..@@@...@@@..
    ..@@@...@@@..
    ..@@@...@@@..
    ..@@@...@@@..
    ..@@@...@@@..
    ..@@@...@@@..
    ..@@@...@@@..
    .@@@@@.@@@@@.
    .............
    .............
    .............
    .............
    .............
    .............

# Character: i
u+0069:
    .......
    .......
    .......
    .......
    ..@@@..
    ..@@@..
    .......
    .......
    .......
    .......
    ...@@..
    .@@@@..
    ..@@@..
    ..@@@..
    ..@@@..
    ..@@@..
    ..@@@..
    ..@@@..
    ..@@@..
    ..@@@..
    .@@@@@.
    .......
    .......
    .......
    .......
    .......
    .......

# Character: j
u+006a:
    .......
    .......
    .......
    .......
    ..@@@..
    ..@@@..
    .......
    .......
    .......
    .......
    ...@@..
    .@@@@..
    ..@@@..
    ..@@@..
    ..@@@..
    ..@@@..
    ..@@@..
    ..@@@..
    ..@@@..
    ..@@@..
    ..@@@..
    ..@@@..
    ..@@@..
    ..@@@..
    @@@@@..
    @@@@...
    .......

# Character: k
u+006b:
    .............
    .............
    .............
    .............
    ...@@........
    .@@@@........
    ..@@@........
    ..@@@........
    ..@@@........
    ..@@@........
    ..@@@.@@@@@..
    ..@@@..@@....
    ..@@@.@@.....
    ..@@@@@......
    ..@@@@@......
    ..@@@@@......
    ..@@@@@@.....
    ..@@@.@@@....
    ..@@@..@@@...
    ..@@@...@@@..
    .@@@@@.@@@@@@
    .............
    .............
    .............
    .............
    .............
    .............

# Character: l
u+006c:
    .......
    .......
    .......
    .......
    ...@@..
    .@@@@..
    ..@@@..
    ..@@@..
    ..@@@..
    ..@@@..
    ..@@@..
    ..@@@..
    ..@@@..
    ..@@@..
    ..@@@..
    ..@@@..
    ..@@@..
    ..@@@..
    ..@@@..
    ..@@@..
    .@@@@@.
    .......
    .......
    .......
    .......
    .......
    .......

# Character: m
u+006d:
    ...................
    ...................
    ...................
    ...................
    ...................
    ...................
    ...................
    ...................
    ...................
    ...................
    ...@@.@@@@..@@@@...
    .@@@@@@@@@@@@@@@@..
    ..@@@@..@@@@..@@@..
    ..@@@...@@@...@@@..
    ..@@@...@@@...@@@..
    ..@@@...@@@...@@@..
    ..@@@...@@@...@@@..
    ..@@@...@@@...@@@..
    ..@@@...@@@...@@@..
    ..@@@...@@@...@@@..
    .@@@@@.@@@@@.@@@@@.
    ...................
    ...................
    ...................
    ...................
    ...................
    ...................

# Character: n
u+006e:
    .............
    .............
    .............
    .............
    .............
    .............
    .............
    .............
    .............
    .............
    ...@@.@@@@...
    .@@@@@@@@@@..
    ..@@@@..@@@..
    ..@@@...@@@..
    ..@@@...@@@..
    ..@@@...@@@..
    ..@@@...@@@..
    ..@@@...@@@..
    ..@@@...@@@..
    ..@@@...@@@..
    .@@@@@.@@@@@.
    .............
    .............
    .............
    .............
    .............
    .............

# Character: o
u+006f:
    .............
    .............
    .............
    .............
    .............
    .............
    .............
    .............
    .............
    .............
    ....@@@@@....
    ..@@@.@@@@@..
    ..@@...@@@@..
    .@@@....@@@@.
    .@@@....@@@@.
    .@@@.....@@@.
    .@@@@....@@@.
    .@@@@....@@@.
    ..@@@@...@@..
    ..@@@@@.@@@..
    ....@@@@@....
    .............
    .............
    .............
    .............
    .............
    .............

# Character: p
u+0070:
    .............
    .............
    .............
    .............
    .............
    .............
    .............
    .............
    .............
    .............
    ...@@@@@@@...
    .@@@@@.@@@@..
    ..@@@...@@@@.
    ..@@@...@@@@.
    ..@@@....@@@.
    ..@@@....@@@.
    ..@@@....@@@.
    ..@@@....@@@.
    ..@@@@...@@..
    ..@@@@@.@@@..
    ..@@@@@@@....
    ..@@@........
    ..@@@........
    ..@@@........
    ..@@@........
    .@@@@@.......
    .............

# Character: q
u+0071:
    .............
    .............
    .............
    .............
    .............
    .............
    .............
    .............
    .............
    .............
    ....@@@@.@@..
    ..@@@.@@@@@..
    ..@@...@@@@..
    .@@@....@@@..
    .@@@....@@@..
    .@@@....@@@..
    .@@@....@@@..
    .@@@@...@@@..
    .@@@@...@@@..
    ..@@@@.@@@@..
    ...@@@@@@@@..
    ........@@@..
    ........@@@..
    ........@@@..
    ........@@@..
    .......@@@@@.
    .............

# Character: r
u+0072:
    .........
    .........
    .........
    .........
    .........
    .........
    .........
    .........
    .........
    .........
    ...@@@@@@
    .@@@@@@@@
    ..@@@....
    ..@@@....
    ..@@@....
    ..@@@....
    ..@@@....
    ..@@@....
    ..@@@....
    ..@@@....
    .@@@@@...
    .........
    .........
    .........
    .........
    .........
    .........

# Character: s
u+0073:
    ...........
    ...........
    ...........
    ...........
    ...........
    ...........
    ...........
    ...........
    ...........
    ...........
    ...@@@@@@..
    ..@@@.@@@..
    .@@@...@@..
    .@@@@......
    ..@@@@@....
    ....@@@@@..
    ......@@@@.
    .@@....@@@.
    .@@@...@@@.
    .@@@@.@@@..
    .@@.@@@@...
    ...........
    ...........
    ...........
    ...........
    ...........
    ...........

# Character: t
u+0074:
    ........
    ........
    ........
    ........
    ........
    ........
    ...@@...
    ...@@...
    ..@@@...
    ..@@@...
    @@@@@@@.
    ..@@@...
    ..@@@...
    ..@@@...
    ..@@@...
    ..@@@...
    ..@@@...
    ..@@@...
    ..@@@...
    ..@@@@@.
    ...@@@..
    ........
    ........
    ........
    ........
    ........
    ........

# Character: u
u+0075:
    .............
    .............
    .............
    .............
    .............
    .............
    .............
    .............
    .............
    .............
    .@@@@..@@@@..
    ..@@@...@@@..
    ..@@@...@@@..
    ..@@@...@@@..
    ..@@@...@@@..
    ..@@@...@@@..
    ..@@@...@@@..
    ..@@@...@@@..
    ..@@@..@@@@..
    ...@@@@@@@@@.
    ....@@@.@@...
    .............
    .............
    .............
    .............
    .............
    .............

# Character: v
u+0076:
    ............
    ............
    ............
    ............
    ............
    ............
    ............
    ............
    ............
    ............
    @@@@@...@@@@
    .@@@.....@@.
    .@@@.....@@.
    ..@@@...@@..
    ..@@@...@@..
    ...@@@.@@...
    ...@@@.@@...
    ....@@@@....
    ....@@@@....
    .....@@.....
    .....@@.....
    ............
    ............
    ............
    ............
    ............
    ............

# Character: w
u+0077:
    ..................
    ..................
    ..................
    ..................
    ..................
    ..................
    ..................
    ..................
    ..................
    ..................
    @@@@@.@@@@@...@@@@
    .@@@...@@@.....@@.
    .@@@...@@@.....@@.
    ..@@@...@@@...@@..
    ..@@@...@@@...@@..
    ...@@@.@@@@@.@@...
    ...@@@.@@@@@.@@...
    ....@@@@..@@@@....
    ....@@@@..@@@@....
    .....@@....@@.....
    .....@@....@@.....
    ..................
    ..................
    ..................
    ..................
    ..................
    ..................

# Character: x
u+0078:
    .............
    .............
    .............
    .............
    .............
    .............
    .............
    .............
    .............
    .............
    .@@@@@.@@@@@.
    ..@@@...@@...
    ...@@@.@@....
    ...@@@@@@....
    ....@@@@.....
    .....@@@.....
    .....@@@@....
    ....@@@@@....
    ...@@..@@@...
    ..@@@...@@@..
    .@@@@@.@@@@@.
    .............
    .............
    .............
    .............
    .............
    .............

# Character: y
u+0079:
    ............
    ............
    ............
    ............
    ............
    ............
    ............
    ............
    ............
    ............
    @@@@@...@@@@
    .@@@.....@@.
    .@@@.....@@.
    ..@@@...@@..
    ..@@@...@@..
    ...@@@.@@...
    ...@@@.@@...
    ....@@@@....
    ....@@@@....
    .....@@.....
    .....@@.....
    ....@@......
    ....@@......
    ...@@.......
    @@@@@.......
    @@@@........
    ............

# Character: z
u+007a:
    ............
    ............
    ............
    ............
    ............
    ............
    ............
    ............
    ............
    ............
    ..@@@@@@@@@.
    ..@@...@@@..
    ..@@..@@@...
    ......@@@...
    .....@@@....
    ....@@@.....
    ....@@@.....
    ...@@@......
    ..@@@....@@.
    ..@@@....@@.
    .@@@@@@@@@@.
    ............
    ............
    ............
    ............
    ............
    ............

# Character: {
u+007b:
    ...........
    ...........
    ...........
    ...........
    ......@@@..
    .....@@@...
    ....@@@....
    ....@@@....
    ....@@@....
    ....@@@....
    ....@@@....
    ....@@@....
    ....@@@....
    ....@@@....
    ...@@@.....
    ..@@@......
    ...@@@.....
    ....@@@....
    ....@@@....
    ....@@@....
    ....@@@....
    ....@@@....
    ....@@@....
    ....@@@....
    .....@@@...
    ......@@@..
    ...........

# Character: |
u+007c:
    .......
    .......
    .......
    .......
    ..@@@..
    ..@@@..
    ..@@@..
    ..@@@..
    ..@@@..
    ..@@@..
    ..@@@..
    ..@@@..
    ..@@@..
    ..@@@..
    ..@@@..
    ..@@@..
    ..@@@..
    ..@@@..
    ..@@@..
    ..@@@..
    ..@@@..
    ..@@@..
    ..@@@..
    ..@@@..
    ..@@@..
    ..@@@..
    .......

# Character: }
u+007d:
    ...........
    ...........
    ...........
    ...........
    ..@@@......
    ...@@@.....
    ....@@@....
    ....@@@....
    ....@@@....
    ....@@@....
    ....@@@....
    ....@@@....
    ....@@@....
    ....@@@....
    .....@@@...
    ......@@@..
    .....@@@...
    ....@@@....
    ....@@@....
    ....@@@....
    ....@@@....
    ....@@@....
    ....@@@....
    ....@@@....
    ...@@@.....
    ..@@@......
    ...........

# Character: ~
u+007e:
    .............
    .............
    .............
    .............
    ...@@@@...@@.
    ..@@@@@@.@@@.
    .@@@.@@@@@@..
    .@@...@@@@...
    .............
    .............
    .............
    .............
    .............
    .............
    .............
    .............
    .............
    .............
    .............
    .............
    .............
    .............
    .............
    .............
    .............
    .............
    .............

# Character: U+00A0
u+00a0:
    .......
    .......
    .......
    .......
    .......
    .......
    .......
    .......
    .......
    .......
    .......
    .......
    .......
    .......
    .......
    .......
    .......
    .......
    .......
    .......
    .......
    .......
    .......
    .......
    .......
    .......

# Character: U+00A1
u+00a1:
    ........
    ........
    ........
    ........
    ........
    ........
    ........
    ........
    ........
    ...@@...
    ..@@@@..
    ..@@@@..
    ...@@...
    ........
    ...@@...
    ...@@...
    ...@@...
    ...@@...
    ..@@@@..
    ..@@@@..
    ..@@@@..
    ..@@@@..
    ..@@@@..
    ..@@@@..
    ..@@@@..
    ...@@...
    ........

# Character: U+00A2
u+00a2:
    .............
    .............
    .............
    .............
    .............
    .............
    .............
    ..........@@.
    ..........@@.
    .........@@..
    .....@@@@@@..
    ...@@@..@@@@.
    ...@@..@@@@@.
    ..@@@..@@....
    ..@@@.@@.....
    ..@@@.@@.....
    ..@@@@@......
    ..@@@@@......
    ...@@@....@@.
    ...@@@@..@@@.
    ...@@@@@@@@..
    ..@@.........
    ..@@.........
    .............
    .............
    .............
    .............

# Character: U+00A3
u+00a3:
    .............
    .............
    .............
    .............
    ....@@@@@@...
    ...@@@..@@@..
    ..@@@...@@@@.
    ..@@@....@@..
    ..@@@........
    ..@@@........
    ...@@@.......
    .@@@@@@@@....
    ...@@@.......
    ...@@@.......
    ...@@@.......
    ...@@@.......
    ..@@@@.......
    .@@@@@.......
    @@.@@@@@...@@
    @@@@@@@@@.@@@
    .@@@...@@@@@.
    .............
    .............
    .............
    .............
    .............
    .............

# Character: U+00A4
u+00a4:
    .............
    .............
    .............
    .............
    .............
    .@@@@@@@@@@@.
    .@@@@@@@@@@@.
    ..@@@...@@@..
    .@@@.....@@@.
    .@@@.....@@@.
    .@@@.....@@@.
    .@@@.....@@@.
    ..@@@...@@@..
    .@@@@@@@@@@@.
    .@@@@@@@@@@@.
    .............
    .............
    .............
    .............
    .............
    .............
    .............
    .............
    .............
    .............
    .............
    .............

# Character: U+00A5
u+00a5:
    .............
    .............
    .............
    .............
    @@@@@....@@@@
    .@@@......@@.
    .@@@......@@.
    ..@@@....@@..
    ..@@@....@@..
    ...@@@..@@...
    ...@@@..@@...
    @@@@@@@@@@@@@
    ....@@@@@....
    ....@@@@.....
    @@@@@@@@@@@@@
    .....@@@.....
    .....@@@.....
    .....@@@.....
    .....@@@.....
    .....@@@.....
    ...@@@@@@@...
    .............
    .............
    .............
    .............
    .............
    .............

# Character: U+00A6
u+00a6:
    .......
    .......
    .......
    .......
    ..@@@..
    ..@@@..
    ..@@@..
    ..@@@..
    ..@@@..
    ..@@@..
    ..@@@..
    .......
    .......
    .......
    ..@@@..
    ..@@@..
    ..@@@..
    ..@@@..
    ..@@@..
    ..@@@..
    ..@@@..
    .......
    .......
    .......
    .......
    .......
    .......

# Character: U+00A7
u+00a7:
    .............
    .............
    .............
    .............
    .....@@@@@...
    ....@@@.@@@..
    ...@@@..@@@..
    ...@@@.......
    ....@@@......
    .....@@@.....
    ....@@@@@....
    ...@@.@@@@...
    ..@@@..@@@@..
    ..@@@...@@@@.
    ..@@@@...@@@.
    ...@@@@..@@@.
    ....@@@@.@@..
    .....@@@@@...
    ......@@@....
    .......@@@...
    ........@@@..
    ...@@@..@@@..
    ...@@@.@@@...
    ....@@@@@....
    .............
    .............
    .............

# Character: U+00A8
u+00a8:
    .........
    .........
    .........
    .........
    .@@@.@@@.
    .@@@.@@@.
    .........
    .........
    .........
    .........
    .........
    .........
    .........
    .........
    .........
    .........
    .........
    .........
    .........
    .........
    .........
    .........
    .........
    .........
    .........
    .........
    .........

# Character: U+00A9
u+00a9:
    ...................
    ...................
    ...................
    ...................
    ......@@@@@@@......
    ....@@@@...@@@@....
    ...@@@.......@@@...
    ..@@@.........@@@..
    ..@@@..@@@@@@.@@@..
    .@@@..@@@.@@@..@@@.
    .@@@.@@@...@@..@@@.
    .@@@.@@@.......@@@.
    .@@@.@@@.......@@@.
    .@@@.@@@...@@..@@@.
    .@@@..@@@.@@...@@@.
    ..@@@..@@@@...@@@..
    ..@@@.........@@@..
    ...@@@.......@@@...
    ....@@@@...@@@@....
    ......@@@@@@@......
    ...................
    ...................
    ...................
    ...................
    ...................
    ...................
    ...................

# Character: U+00AA
u+00aa:
    .........
    .........
    .........
    .........
    ..@@@@@..
    .@@@.@@@.
    .....@@@.
    ....@@@@.
    ..@@@@@@.
    .@@@.@@@.
    .@@@@@@@@
    ..@@@.@@@
    .........
    .@@@@@@@@
    .........
    .........
    .........
    .........
    .........
    .........
    .........
    .........
    .........
    .........
    .........
    .........
    .........

# Character: U+00AB
u+00ab:
    .............
    .............
    .............
    .............
    .............
    .............
    .............
    .............
    .............
    .....@@@.@@@.
    ....@@@.@@@..
    ...@@@.@@@...
    ..@@@.@@@....
    .@@@.@@@.....
    .@@@.@@@.....
    ..@@@.@@@....
    ...@@@.@@@...
    ....@@@.@@@..
    .....@@@.@@@.
    .............
    .............
    .............
    .............
    .............
    .............
    .............
    .............

# Character: U+00AC
u+00ac:
    ...............
    ...............
    ...............
    ...............
    ...............
    ...............
    ...............
    ...............
    ...............
    ...............
    ...............
    .@@@@@@@@@@@@@.
    .@@@@@@@@@@@@@.
    ...........@@@.
    ...........@@@.
    ...............
    ...............
    ...............
    ...............
    ...............
    ...............
    ...............
    ...............
    ...............
    ...............
    ...............
    ...............

# Character: U+00AD
u+00ad:
    .........
    .........
    .........
    .........
    .........
    .........
    .........
    .........
    .........
    .........
    .........
    .........
    .........
    .........
    .@@@@@@@.
    .........
    .........
    .........
    .........
    .........
    .........
    .........
    .........
    .........
    .........
    .........
    .........

# Character: U+00AE
u+00ae:
    ...................
    ...................
    ...................
    ...................
    ......@@@@@@@......
    ....@@@@...@@@@....
    ...@@@.......@@@...
    ..@@@.........@@@..
    ..@@@@@@@@@@..@@@..
    .@@@..@@@.@@@..@@@.
    .@@@..@@@..@@..@@@.
    .@@@..@@@.@@@..@@@.
    .@@@..@@@@@@...@@@.
    .@@@..@@@@@@...@@@.
    .@@@..@@@.@@@..@@@.
    ..@@@@@@@@.@@@@@@..
    ..@@@.........@@@..
    ...@@@.......@@@...
    ....@@@@...@@@@....
    ......@@@@@@@......
    ...................
    ...................
    ...................
    ...................
    ...................
    ...................
    ...................

# Character: U+00AF
u+00af:
    .............
    .............
    .............
    @@@@@@@@@@@@@
    .............
    .............
    .............
    .............
    .............
    .............
    .............
    .............
    .............
    .............
    .............
    .............
    .............
    .............
    .............
    .............
    .............
    .............
    .............
    .............
    .............
    .............
    .............

# Character: U+00B0
u+00b0:
    .........
    .........
    .........
    ...@@@...
    ..@@@@@..
    .@@@.@@@.
    .@@@.@@@.
    ..@@@@@..
    ...@@@...
    .........
    .........
    .........
    .........
    .........
    .........
    .........
    .........
    .........
    .........
    .........
    .........
    .........
    .........
    .........
    .........
    .........
    .........

# Character: U+00B1
u+00b1:
    ...............
    ...............
    ...............
    ...............
    ...............
    ...............
    ......@@@......
    ......@@@......
    ......@@@......
    ......@@@......
    ..@@@@@@@@@@@..
    ..@@@@@@@@@@@..
    ......@@@......
    ......@@@......
    ......@@@......
    ......@@@......
    ...............
    ...............
    ...............
    ..@@@@@@@@@@@..
    ..@@@@@@@@@@@..
    ...............
    ...............
    ...............
    ...............
    ...............
    ...............

# Character: U+00B2
u+00b2:
    .......
    .......
    .......
    .......
    .@@@@..
    @@@@@@.
    ...@@@.
    ...@@@.
    ..@@@..
    .@@@...
    .@@.@@.
    @@@@@@.
    .......
    .......
    .......
    .......
    .......
    .......
    .......
    .......
    .......
    .......
    .......
    .......
    .......
    .......
    .......

# Character: U+00B3
u+00b3:
    .......
    .......
    .......
    .......
    .@@@@..
    @@@@@@.
    ...@@@.
    .@@@@..
    ...@@@.
    ...@@@.
    @@@@@@.
    .@@@@..
    .......
    .......
    .......
    .......
    .......
    .......
    .......
    .......
    .......
    .......
    .......
    .......
    .......
    .......
    .......

# Character: U+00B4
u+00b4:
    .........
    .........
    .........
    .........
    ....@@@..
    ...@@@...
    ..@@.....
    .........
    .........
    .........
    .........
    .........
    .........
    .........
    .........
    .........
    .........
    .........
    .........
    .........
    .........
    .........
    .........
    .........
    .........
    .........
    .........

# Character: U+00B5
u+00b5:
    .............
    .............
    .............
    .............
    .............
    .............
    .............
    .............
    .............
    .............
    .@@@@...@@@@.
    ..@@@....@@@.
    ..@@@....@@@.
    ..@@@....@@@.
    ..@@@....@@@.
    ..@@@....@@@.
    ..@@@....@@@.
    ..@@@....@@@.
    ..@@@...@@@@.
    ..@@@@.@@@@@@
    ..@@@@@@.@@..
    ..@@@........
    ..@@@........
    ..@@@........
    ..@@@........
    ..@@@........
    .............

# Character: U+00B6
u+00b6:
    ............
    ............
    ............
    ............
    ............
    ............
    ............
    ...@@@@@@@@.
    ..@@@@@@@@@.
    .@@@@@@.@@..
    .@@@@@@.@@..
    .@@@@@@.@@..
    .@@@@@@.@@..
    ..@@@@@.@@..
    ...@@@@.@@..
    .....@@.@@..
    .....@@.@@..
    .....@@.@@..
    .....@@.@@..
    .....@@.@@..
    .....@@.@@..
    .....@@.@@..
    .....@@.@@..
    ............
    ............
    ............
    ............

# Character: U+00B7
u+00b7:
    .......
    .......
    .......
    .......
    .......
    .......
    .......
    .......
    .......
    .......
    .......
    ...@@..
    ..@@@@.
    ..@@@@.
    ...@@..
    .......
    .......
    .......
    .......
    .......
    .......
    .......
    .......
    .......
    .......
    .......
    .......

# Character: U+00B8
u+00b8:
    .........
    .........
    .........
    .........
    .........
    .........
    .........
    .........
    .........
    .........
    .........
    .........
    .........
    .........
    .........
    .........
    .........
    .........
    .........
    .........
    .........
    ....@@...
    ...@@....
    ...@@@@..
    .@@..@@@.
    ..@@@@@..
    .........

# Character: U+00B9
u+00b9:
    .......
    .......
    .......
    .......
    ...@@..
    .@@@@..
    ..@@@..
    ..@@@..
    ..@@@..
    ..@@@..
    ..@@@..
    .@@@@@.
    .......
    .......
    .......
    .......
    .......
    .......
    .......
    .......
    .......
    .......
    .......
    .......
    .......
    .......
    .......

# Character: U+00BA
u+00ba:
    .........
    .........
    .........
    .........
    ..@@@@@..
    .@@@.@@@.
    .@@@.@@@.
    .@@@.@@@.
    .@@@.@@@.
    .@@@.@@@.
    .@@@.@@@.
    ..@@@@@..
    .........
    .@@@@@@@.
    .........
    .........
    .........
    .........
    .........
    .........
    .........
    .........
    .........
    .........
    .........
    .........
    .........

# Character: U+00BB
u+00bb:
    .............
    .............
    .............
    .............
    .............
    .............
    .............
    .............
    .@@@.@@@.....
    ..@@@.@@@....
    ...@@@.@@@...
    ....@@@.@@@..
    .....@@@.@@@.
    .....@@@.@@@.
    ....@@@.@@@..
    ...@@@.@@@...
    ..@@@.@@@....
    .@@@.@@@.....
    .............
    .............
    .............
    .............
    .............
    .............
    .............
    .............
    .............

# Character: U+00BC
u+00bc:
    .................
    .................
    .................
    .................
    ..@@@......@@@...
    .@@@@......@@@...
    ..@@@.....@@@....
    ..@@@....@@@.....
    ..@@@....@@@.....
    ..@@@...@@@......
    ..@@@..@@@.......
    .@@@@@.@@@.......
    ......@@@........
    .....@@@....@@@..
    .....@@@...@@@@..
    ....@@@....@@@@..
    ...@@@....@@@@@..
    ...@@@....@@@@@..
    ..@@@....@@@@@@@.
    .@@@........@@@..
    .@@@........@@@..
    .................
    .................
    .................
    .................
    .................
    .................

# Character: U+00BD
u+00bd:
    .................
    .................
    .................
    .................
    ...@@.......@@@..
    .@@@@.......@@@..
    ..@@@......@@@...
    ..@@@.....@@@....
    ..@@@.....@@@....
    ..@@@....@@@.....
    ..@@@...@@@......
    .@@@@@..@@@......
    .......@@@.......
    ......@@@..@@@@..
    ......@@@.@@@@@@.
    .....@@@.....@@@.
    ....@@@......@@@.
    ....@@@.....@@@..
    ...@@@.....@@@...
    ..@@@......@@.@@.
    ..@@@.....@@@@@@.
    .................
    .................
    .................
    .................
    .................
    .................

# Character: U+00BE
u+00be:
    .................
    .................
    .................
    .................
    ..@@@@......@@@..
    .@@@@@@.....@@@..
    ....@@@....@@@...
    ..@@@@....@@@....
    ....@@@...@@@....
    ....@@@..@@@.....
    .@@@@@@.@@@......
    ..@@@@..@@@......
    .......@@@.......
    ......@@@...@@@..
    ......@@@..@@@@..
    .....@@@...@@@@..
    ....@@@...@@@@@..
    ....@@@...@@@@@..
    ...@@@...@@@@@@@.
    ..@@@.......@@@..
    ..@@@.......@@@..
    .................
    .................
    .................
    .................
    .................
    .................

# Character: U+00BF
u+00bf:
    ............
    ............
    ............
    ............
    ............
    ............
    ............
    ............
    ............
    .....@@.....
    ....@@@@....
    ....@@@@....
    .....@@.....
    ............
    .....@@.....
    .....@@.....
    .....@@.....
    ....@@@.....
    ...@@@......
    ..@@@.......
    ..@@@...@@..
    .@@@@..@@@@.
    .@@@@..@@@@.
    .@@@@...@@@.
    ..@@@@.@@@..
    ...@@@@@@...
    ............

# Character: U+00C0
u+00c0:
    ......@@@.........
    .......@@@........
    .........@@.......
    ..................
    ..................
    ........@@........
    ........@@........
    .......@@@@.......
    .......@@@@.......
    ......@@@@@@......
    ......@@.@@@......
    .....@@@.@@@@.....
    .....@@...@@@.....
    ....@@@...@@@@....
    ....@@.....@@@....
    ...@@@@@@@@@@@@...
    ...@@.......@@@...
    ..@@@.......@@@@..
    ..@@.........@@@..
    .@@@.........@@@@.
    @@@@@@.....@@@@@@@
    ..................
    ..................
    ..................
    ..................
    ..................
    ..................

# Character: U+00C1
u+00c1:
    .........@@@......
    ........@@@.......
    .......@@.........
    ..................
    ..................
    ........@@........
    ........@@........
    .......@@@@.......
    .......@@@@.......
    ......@@@@@@......
    ......@@.@@@......
    .....@@@.@@@@.....
    .....@@...@@@.....
    ....@@@...@@@@....
    ....@@.....@@@....
    ...@@@@@@@@@@@@...
    ...@@.......@@@...
    ..@@@.......@@@@..
    ..@@.........@@@..
    .@@@.........@@@@.
    @@@@@@.....@@@@@@@
    ..................
    ..................
    ..................
    ..................
    ..................
    ..................

# Character: U+00C2
u+00c2:
    ........@@........
    .......@@@@.......
    ......@@..@@......
    .....@@....@@.....
    ..................
    ........@@........
    ........@@........
    .......@@@@.......
    .......@@@@.......
    ......@@@@@@......
    ......@@.@@@......
    .....@@@.@@@@.....
    .....@@...@@@.....
    ....@@@...@@@@....
    ....@@.....@@@....
    ...@@@@@@@@@@@@...
    ...@@.......@@@...
    ..@@@.......@@@@..
    ..@@.........@@@..
    .@@@.........@@@@.
    @@@@@@.....@@@@@@@
    ..................
    ..................
    ..................
    ..................
    ..................
    ..................

# Character: U+00C3
u+00c3:
    ......@@@...@@....
    .....@@@@@@@@.....
    ....@@...@@@......
    ..................
    ..................
    ........@@........
    ........@@........
    .......@@@@.......
    .......@@@@.......
    ......@@@@@@......
    ......@@.@@@......
    .....@@@.@@@@.....
    .....@@...@@@.....
    ....@@@...@@@@....
    ....@@.....@@@....
    ...@@@@@@@@@@@@...
    ...@@.......@@@...
    ..@@@.......@@@@..
    ..@@.........@@@..
    .@@@.........@@@@.
    @@@@@@.....@@@@@@@
    ..................
    ..................
    ..................
    ..................
    ..................
    ..................

# Character: U+00C4
u+00c4:
    ..................
    .....@@@..@@@.....
    .....@@@..@@@.....
    ..................
    ..................
    ........@@........
    ........@@........
    .......@@@@.......
    .......@@@@.......
    ......@@@@@@......
    ......@@.@@@......
    .....@@@.@@@@.....
    .....@@...@@@.....
    ....@@@...@@@@....
    ....@@.....@@@....
    ...@@@@@@@@@@@@...
    ...@@.......@@@...
    ..@@@.......@@@@..
    ..@@.........@@@..
    .@@@.........@@@@.
    @@@@@@.....@@@@@@@
    ..................
    ..................
    ..................
    ..................
    ..................
    ..................

# Character: U+00C5
u+00c5:
    .......@@@@.......
    ......@@..@@......
    ......@@..@@......
    .......@@@@.......
    ..................
    ........@@........
    ........@@........
    .......@@@@.......
    .......@@@@.......
    ......@@@@@@......
    ......@@.@@@......
    .....@@@.@@@@.....
    .....@@...@@@.....
    ....@@@...@@@@....
    ....@@.....@@@....
    ...@@@@@@@@@@@@...
    ...@@.......@@@...
    ..@@@.......@@@@..
    ..@@.........@@@..
    .@@@.........@@@@.
    @@@@@@.....@@@@@@@
    ..................
    ..................
    ..................
    ..................
    ..................
    ..................

# Character: U+00C6
u+00c6:
    .......................
    .......................
    .......................
    .......................
    .......................
    .......@@@@@@@@@@@@@@..
    .........@@@@@....@@@..
    ........@@@@@@.....@@..
    ........@@.@@@.........
    .......@@@.@@@.........
    .......@@..@@@...@@....
    ......@@@..@@@...@@....
    ......@@...@@@@@@@@....
    .....@@@@@@@@@...@@....
    .....@@....@@@...@@....
    ....@@@....@@@.........
    ....@@.....@@@.........
    ...@@@.....@@@.........
    ...@@......@@@......@@.
    ..@@@......@@@.....@@@.
    .@@@@@@..@@@@@@@@@@@@..
    .......................
    .......................
    .......................
    .......................
    .......................
    .......................

# Character: U+00C7
u+00c7:
    .................
    .................
    .................
    .................
    .................
    ......@@@@@@@.@@.
    ....@@@@...@@@@@.
    ...@@@.......@@@.
    ..@@@.........@@.
    ..@@@.........@@.
    .@@@.............
    .@@@.............
    .@@@.............
    .@@@.............
    .@@@.............
    .@@@.............
    ..@@@............
    ..@@@.........@@.
    ...@@@.......@@..
    ....@@@@...@@@...
    ......@@@@@@.....
    ........@@.......
    .......@@........
    .......@@@@......
    .....@@..@@@.....
    ......@@@@@......
    .................

# Character: U+00C8
u+00c8:
    .....@@@........
    ......@@@.......
    ........@@......
    ................
    ................
    .@@@@@@@@@@@@@..
    ...@@@.....@@@..
    ...@@@......@@..
    ...@@@..........
    ...@@@..........
    ...@@@....@@....
    ...@@@....@@....
    ...@@@@@@@@@....
    ...@@@....@@....
    ...@@@....@@....
    ...@@@..........
    ...@@@..........
    ...@@@..........
    ...@@@.......@@.
    ...@@@......@@@.
    .@@@@@@@@@@@@@..
    ................
    ................
    ................
    ................
    ................
    ................

# Character: U+00C9
u+00c9:
    .......@@@......
    ......@@@.......
    .....@@.........
    ................
    ................
    .@@@@@@@@@@@@@..
    ...@@@.....@@@..
    ...@@@......@@..
    ...@@@..........
    ...@@@..........
    ...@@@...@@.....
    ...@@@...@@.....
    ...@@@@@@@@.....
    ...@@@...@@.....
    ...@@@...@@.....
    ...@@@..........
    ...@@@..........
    ...@@@..........
    ...@@@......@@..
    ...@@@.....@@@..
    .@@@@@@@@@@@@...
    ................
    ................
    ................
    ................
    ................
    ................

# Character: U+00CA
u+00ca:
    ......@@@.......
    .....@@@@@......
    ....@@...@@.....
    ...@@.....@@....
    ................
    .@@@@@@@@@@@@...
    ...@@@....@@@...
    ...@@@.....@@...
    ...@@@..........
    ...@@@..........
    ...@@@...@@.....
    ...@@@...@@.....
    ...@@@@@@@@.....
    ...@@@...@@.....
    ...@@@...@@.....
    ...@@@..........
    ...@@@..........
    ...@@@..........
    ...@@@......@@..
    ...@@@.....@@@..
    .@@@@@@@@@@@@...
    ................
    ................
    ................
    ................
    ................
    ................

# Character: U+00CB
u+00cb:
    ................
    ....@@@..@@@....
    ....@@@..@@@....
    ................
    ................
    .@@@@@@@@@@@@...
    ...@@@.....@@...
    ...@@@......@@..
    ...@@@..........
    ...@@@..........
    ...@@@...@@.....
    ...@@@...@@.....
    ...@@@@@@@@.....
    ...@@@...@@.....
    ...@@@...@@.....
    ...@@@..........
    ...@@@..........
    ...@@@..........
    ...@@@......@@..
    ...@@@.....@@@..
    .@@@@@@@@@@@@...
    ................
    ................
    ................
    ................
    ................
    ................

# Character: U+00CC
u+00cc:
    ..@@@....
    ...@@@...
    .....@@..
    .........
    .........
    .@@@@@@@.
    ...@@@...
    ...@@@...
    ...@@@...
    ...@@@...
    ...@@@...
    ...@@@...
    ...@@@...
    ...@@@...
    ...@@@...
    ...@@@...
    ...@@@...
    ...@@@...
    ...@@@...
    ...@@@...
    .@@@@@@@.
    .........
    .........
    .........
    .........
    .........
    .........

# Character: U+00CD
u+00cd:
    ....@@@..
    ...@@@...
    ..@@.....
    .........
    .........
    .@@@@@@@.
    ...@@@...
    ...@@@...
    ...@@@...
    ...@@@...
    ...@@@...
    ...@@@...
    ...@@@...
    ...@@@...
    ...@@@...
    ...@@@...
    ...@@@...
    ...@@@...
    ...@@@...
    ...@@@...
    .@@@@@@@.
    .........
    .........
    .........
    .........
    .........
    .........

# Character: U+00CE
u+00ce:
    ...@@@...
    ..@@@@@..
    .@@...@@.
    @@.....@@
    .........
    .@@@@@@@.
    ...@@@...
    ...@@@...
    ...@@@...
    ...@@@...
    ...@@@...
    ...@@@...
    ...@@@...
    ...@@@...
    ...@@@...
    ...@@@...
    ...@@@...
    ...@@@...
    ...@@@...
    ...@@@...
    .@@@@@@@.
    .........
    .........
    .........
    .........
    .........
    .........

# Character: U+00CF
u+00cf:
    .........
    .@@@.@@@.
    .@@@.@@@.
    .........
    .........
    .@@@@@@@.
    ...@@@...
    ...@@@...
    ...@@@...
    ...@@@...
    ...@@@...
    ...@@@...
    ...@@@...
    ...@@@...
    ...@@@...
    ...@@@...
    ...@@@...
    ...@@@...
    ...@@@...
    ...@@@...
    .@@@@@@@.
    .........
    .........
    .........
    .........
    .........
    .........

# Character: U+00D0
u+00d0:
    ..................
    ..................
    ..................
    ..................
    ..................
    .@@@@@@@@@@@......
    ...@@@....@@@@....
    ...@@@......@@@...
    ...@@@.......@@@..
    ...@@@.......@@@..
    ...@@@........@@@.
    ...@@@........@@@.
    .@@@@@@@@.....@@@.
    ...@@@........@@@.
    ...@@@........@@@.
    ...@@@........@@@.
    ...@@@.......@@@..
    ...@@@.......@@@..
    ...@@@......@@@...
    ...@@@....@@@@....
    .@@@@@@@@@@@......
    ..................
    ..................
    ..................
    ..................
    ..................
    ..................

# Character: U+00D1
u+00d1:
    ......@@@...@@....
    .....@@@@@@@@.....
    ....@@...@@@......
    ..................
    ..................
    .@@@@......@@@@@@.
    ..@@@@.......@@...
    ...@@@@......@@...
    ...@@@@@.....@@...
    ...@@@@@.....@@...
    ...@@@@@@....@@...
    ...@@.@@@@...@@...
    ...@@.@@@@@..@@...
    ...@@..@@@@..@@...
    ...@@...@@@@.@@...
    ...@@....@@@@@@...
    ...@@.....@@@@@...
    ...@@.....@@@@@...
    ...@@......@@@@...
    ...@@.......@@@...
    .@@@@@@......@@...
    ..................
    ..................
    ..................
    ..................
    ..................
    ..................

# Character: U+00D2
u+00d2:
    ......@@@.........
    .......@@@........
    .........@@.......
    ..................
    ..................
    ......@@@@@@......
    ....@@@@..@@@@....
    ...@@@......@@@...
    ..@@@........@@@..
    ..@@@........@@@..
    .@@@..........@@@.
    .@@@..........@@@.
    .@@@..........@@@.
    .@@@..........@@@.
    .@@@..........@@@.
    .@@@..........@@@.
    ..@@@........@@@..
    ..@@@........@@@..
    ...@@@......@@@...
    ....@@@@..@@@@....
    ......@@@@@@......
    ..................
    ..................
    ..................
    ..................
    ..................
    ..................

# Character: U+00D3
u+00d3:
    .........@@@......
    ........@@@.......
    .......@@.........
    ..................
    ..................
    ......@@@@@@......
    ....@@@@..@@@@....
    ...@@@......@@@...
    ..@@@........@@@..
    ..@@@........@@@..
    .@@@..........@@@.
    .@@@..........@@@.
    .@@@..........@@@.
    .@@@..........@@@.
    .@@@..........@@@.
    .@@@..........@@@.
    ..@@@........@@@..
    ..@@@........@@@..
    ...@@@......@@@...
    ....@@@@..@@@@....
    ......@@@@@@......
    ..................
    ..................
    ..................
    ..................
    ..................
    ..................

# Character: U+00D4
u+00d4:
    ........@@........
    .......@@@@.......
    ......@@..@@......
    .....@@....@@.....
    ..................
    ......@@@@@@......
    ....@@@@..@@@@....
    ...@@@......@@@...
    ..@@@........@@@..
    ..@@@........@@@..
    .@@@..........@@@.
    .@@@..........@@@.
    .@@@..........@@@.
    .@@@..........@@@.
    .@@@..........@@@.
    .@@@..........@@@.
    ..@@@........@@@..
    ..@@@........@@@..
    ...@@@......@@@...
    ....@@@@..@@@@....
    ......@@@@@@......
    ..................
    ..................
    ..................
    ..................
    ..................
    ..................

# Character: U+00D5
u+00d5:
    ......@@@...@@....
    .....@@@@@@@@.....
    ....@@...@@@......
    ..................
    ..................
    ......@@@@@@......
    ....@@@@..@@@@....
    ...@@@......@@@...
    ..@@@........@@@..
    ..@@@........@@@..
    .@@@..........@@@.
    .@@@..........@@@.
    .@@@..........@@@.
    .@@@..........@@@.
    .@@@..........@@@.
    .@@@..........@@@.
    ..@@@........@@@..
    ..@@@........@@@..
    ...@@@......@@@...
    ....@@@@..@@@@....
    ......@@@@@@......
    ..................
    ..................
    ..................
    ..................
    ..................
    ..................

# Character: U+00D6
u+00d6:
    ..................
    .....@@@..@@@.....
    .....@@@..@@@.....
    ..................
    ..................
    ......@@@@@@......
    ....@@@@..@@@@....
    ...@@@......@@@...
    ..@@@........@@@..
    ..@@@........@@@..
    .@@@..........@@@.
    .@@@..........@@@.
    .@@@..........@@@.
    .@@@..........@@@.
    .@@@..........@@@.
    .@@@..........@@@.
    ..@@@........@@@..
    ..@@@........@@@..
    ...@@@......@@@...
    ....@@@@..@@@@....
    ......@@@@@@......
    ..................
    ..................
    ..................
    ..................
    ..................
    ..................

# Character: U+00D7
u+00d7:
    ...............
    ...............
    ...............
    ...............
    ...............
    ...............
    ...............
    ...............
    ...............
    ...............
    ..@@@.....@@@..
    ...@@@...@@@...
    ....@@@.@@@....
    .....@@@@@.....
    ......@@@......
    .....@@@@@.....
    ....@@@.@@@....
    ...@@@...@@@...
    ..@@@.....@@@..
    ...............
    ...............
    ...............
    ...............
    ...............
    ...............
    ...............
    ...............

# Character: U+00D8
u+00d8:
    ..................
    ..................
    ..................
    ..................
    ..................
    ......@@@@@@...@@.
    ....@@@@..@@@@@@@.
    ...@@@......@@@@..
    ..@@@.......@@@@..
    ..@@@......@@@@@..
    .@@@......@@@.@@@.
    .@@@.....@@@..@@@.
    .@@@....@@@...@@@.
    .@@@...@@@....@@@.
    .@@@..@@@.....@@@.
    .@@@.@@@......@@@.
    ..@@@@@......@@@..
    ..@@@@.......@@@..
    ..@@@@@.....@@@...
    .@@@@@@@..@@@@....
    .@@...@@@@@@......
    ..................
    ..................
    ..................
    ..................
    ..................
    ..................

# Character: U+00D9
u+00d9:
    ......@@@@........
    ........@@@.......
    ..........@@......
    ..................
    ..................
    .@@@@@@@...@@@@@@.
    ...@@@.......@@...
    ...@@@.......@@...
    ...@@@.......@@...
    ...@@@.......@@...
    ...@@@.......@@...
    ...@@@.......@@...
    ...@@@.......@@...
    ...@@@.......@@...
    ...@@@.......@@...
    ...@@@.......@@...
    ...@@@.......@@...
    ...@@@.......@@...
    ....@@@.....@@....
    ....@@@@...@@@....
    ......@@@@@@......
    ..................
    ..................
    ..................
    ..................
    ..................
    ..................

# Character: U+00DA
u+00da:
    .........@@@......
    ........@@@.......
    .......@@.........
    ..................
    ..................
    .@@@@@@@...@@@@@@.
    ...@@@.......@@...
    ...@@@.......@@...
    ...@@@.......@@...
    ...@@@.......@@...
    ...@@@.......@@...
    ...@@@.......@@...
    ...@@@.......@@...
    ...@@@.......@@...
    ...@@@.......@@...
    ...@@@.......@@...
    ...@@@.......@@...
    ...@@@.......@@...
    ....@@@.....@@....
    ....@@@@...@@@....
    ......@@@@@@......
    ..................
    ..................
    ..................
    ..................
    ..................
    ..................

# Character: U+00DB
u+00db:
    ........@@@.......
    .......@@@@@......
    ......@@...@@.....
    .....@@.....@@....
    ..................
    .@@@@@@@...@@@@@@.
    ...@@@.......@@...
    ...@@@.......@@...
    ...@@@.......@@...
    ...@@@.......@@...
    ...@@@.......@@...
    ...@@@.......@@...
    ...@@@.......@@...
    ...@@@.......@@...
    ...@@@.......@@...
    ...@@@.......@@...
    ...@@@.......@@...
    ...@@@.......@@...
    ....@@@.....@@....
    ....@@@@...@@@....
    ......@@@@@@......
    ..................
    ..................
    ..................
    ..................
    ..................
    ..................

# Character: U+00DC
u+00dc:
    ..................
    .....@@@...@@@....
    .....@@@...@@@....
    ..................
    ..................
    .@@@@@@@...@@@@@@.
    ...@@@.......@@...
    ...@@@.......@@...
    ...@@@.......@@...
    ...@@@.......@@...
    ...@@@.......@@...
    ...@@@.......@@...
    ...@@@.......@@...
    ...@@@.......@@...
    ...@@@.......@@...
    ...@@@.......@@...
    ...@@@.......@@...
    ...@@@.......@@...
    ....@@@.....@@....
    ....@@@@...@@@....
    ......@@@@@@......
    ..................
    ..................
    ..................
    ..................
    ..................
    ..................

# Character: U+00DD
u+00dd:
    ..........@@@......
    .........@@@.......
    ........@@.........
    ...................
    ...................
    @@@@@@@@....@@@@@@@
    ..@@@@........@@@..
    ...@@@@......@@@...
    ....@@@......@@....
    ....@@@@....@@@....
    .....@@@@..@@@.....
    ......@@@..@@......
    ......@@@@@@@......
    .......@@@@@.......
    ........@@@........
    ........@@@........
    ........@@@........
    ........@@@........
    ........@@@........
    ........@@@........
    ......@@@@@@@......
    ...................
    ...................
    ...................
    ...................
    ...................
    ...................

# Character: U+00DE
u+00de:
    ..............
    ..............
    ..............
    ..............
    .@@@@@@@......
    ...@@@........
    ...@@@........
    ...@@@........
    ...@@@@@@@@...
    ...@@@...@@@@.
    ...@@@.....@@@
    ...@@@.....@@@
    ...@@@.....@@@
    ...@@@.....@@@
    ...@@@...@@@@.
    ...@@@@@@@@...
    ...@@@........
    ...@@@........
    ...@@@........
    ...@@@........
    .@@@@@@@......
    ..............
    ..............
    ..............
    ..............
    ..............
    ..............

# Character: U+00DF
u+00df:
    .............
    .............
    .............
    .............
    .............
    ....@@@@@@...
    ...@@@..@@@..
    ..@@@...@@@..
    ..@@@...@@@..
    ..@@@...@@@..
    ..@@@..@@@...
    ..@@@@@@@@...
    ..@@@..@@@@..
    ..@@@...@@@..
    ..@@@....@@@.
    ..@@@....@@@.
    ..@@@....@@@.
    ..@@@....@@@.
    ..@@@....@@@.
    ..@@@@@@@@@..
    .@@@@.@@@@...
    .............
    .............
    .............
    .............
    .............
    .............

# Character: U+00E0
u+00e0:
    ............
    ............
    ............
    ............
    ............
    ...@@@......
    ....@@@.....
    ......@@....
    ............
    ............
    ...@@@@@@...
    ..@@@..@@@..
    ..@@@..@@@..
    .......@@@..
    .....@@@@@..
    ...@@@@@@@..
    ..@@@..@@@..
    .@@@...@@@..
    .@@@..@@@@@@
    .@@@@@@@@@@@
    ..@@@@@.@@@.
    ............
    ............
    ............
    ............
    ............
    ............

# Character: U+00E1
u+00e1:
    ............
    ............
    ............
    ............
    ............
    ......@@@...
    .....@@@....
    ....@@......
    ............
    ............
    ...@@@@@@...
    ..@@@..@@@..
    ..@@@..@@@..
    .......@@@..
    .....@@@@@..
    ...@@@@@@@..
    ..@@@..@@@..
    .@@@...@@@@@
    .@@@..@@@@@@
    .@@@@@@@@@@.
    ..@@@@@.@@..
    ............
    ............
    ............
    ............
    ............
    ............

# Character: U+00E2
u+00e2:
    ............
    ............
    ............
    ............
    ............
    .....@@.....
    ....@@@@....
    ...@@..@@...
    ..@@....@@..
    ............
    ...@@@@@@...
    ..@@@..@@@..
    ..@@@..@@@..
    .......@@@..
    .....@@@@@..
    ...@@@@@@@..
    ..@@@..@@@..
    .@@@...@@@..
    .@@@..@@@@@@
    .@@@@@@@@@@@
    ..@@@@@.@@@.
    ............
    ............
    ............
    ............
    ............
    ............

# Character: U+00E3
u+00e3:
    ............
    ............
    ............
    ............
    ............
    ...@@@...@@.
    ..@@@@@@@@..
    .@@...@@@...
    ............
    ............
    ...@@@@@@...
    ..@@@..@@@..
    ..@@@..@@@..
    .......@@@..
    .....@@@@@..
    ...@@@@@@@..
    ..@@@..@@@..
    .@@@...@@@..
    .@@@..@@@@@@
    .@@@@@@@@@@@
    ..@@@@@.@@@.
    ............
    ............
    ............
    ............
    ............
    ............

# Character: U+00E4
u+00e4:
    ............
    ............
    ............
    ............
    ............
    ............
    ...@@@.@@@..
    ...@@@.@@@..
    ............
    ............
    ...@@@@@@...
    ..@@@..@@@..
    ..@@@..@@@..
    .......@@@..
    .....@@@@@..
    ...@@@@@@@..
    ..@@@..@@@..
    .@@@...@@@..
    .@@@..@@@@@@
    .@@@@@@@@@@@
    ..@@@@@.@@@.
    ............
    ............
    ............
    ............
    ............
    ............

# Character: U+00E5
u+00e5:
    ............
    ............
    ............
    ............
    ............
    ....@@@@....
    ...@@..@@...
    ...@@..@@...
    ....@@@@....
    ............
    ...@@@@@@...
    ..@@@..@@@..
    ..@@@..@@@..
    .......@@@..
    .....@@@@@..
    ...@@@@@@@..
    ..@@@..@@@..
    .@@@...@@@..
    .@@@..@@@@@@
    .@@@@@@@@@@@
    ..@@@@@.@@@.
    ............
    ............
    ............
    ............
    ............
    ............

# Character: U+00E6
u+00e6:
    ..................
    ..................
    ..................
    ..................
    ..................
    ..................
    ..................
    ..................
    ..................
    ..................
    ...@@@@@@@@@@@@...
    ..@@@.@@@@@..@@@..
    ..@@@..@@@....@@@.
    .......@@@....@@@.
    .....@@@@@@@@@@@@.
    ...@@@@@@@........
    ..@@@..@@@........
    .@@@...@@@........
    .@@@..@@@@@...@@@.
    .@@@@@@@@@@@.@@@..
    ..@@@@@...@@@@@...
    ..................
    ..................
    ..................
    ..................
    ..................
    ..................

# Character: U+00E7
u+00e7:
    ............
    ............
    ............
    ............
    ............
    ............
    ............
    ............
    ............
    ............
    ....@@@@@...
    ..@@@..@@@@.
    ..@@....@@@.
    .@@@........
    .@@@........
    .@@@........
    .@@@@.......
    .@@@@.......
    ..@@@@...@@.
    ..@@@@@.@@@.
    ....@@@@@...
    ......@@....
    .....@@.....
    .....@@@@...
    ...@@..@@@..
    ....@@@@@...
    ............

# Character: U+00E8
u+00e8:
    ............
    ............
    ............
    ............
    ............
    ...@@@......
    ....@@@.....
    ......@@....
    ............
    ............
    ....@@@@@...
    ..@@@.@@@@@.
    ..@@...@@@@.
    .@@@@@@@@@@@
    .@@@........
    .@@@........
    .@@@@.......
    .@@@@.......
    ..@@@@...@@.
    ..@@@@@.@@@.
    ....@@@@@...
    ............
    ............
    ............
    ............
    ............
    ............

# Character: U+00E9
u+00e9:
    ............
    ............
    ............
    ............
    ............
    .......@@@..
    ......@@@...
    .....@@.....
    ............
    ............
    ....@@@@@...
    ..@@@.@@@@@.
    ..@@...@@@@.
    .@@@@@@@@@@@
    .@@@........
    .@@@........
    .@@@@.......
    .@@@@.......
    ..@@@@...@@.
    ..@@@@@.@@@.
    ....@@@@@...
    ............
    ............
    ............
    ............
    ............
    ............

# Character: U+00EA
u+00ea:
    ............
    ............
    ............
    ............
    ............
    .....@@@....
    ....@@@@@...
    ...@@...@@..
    ..@@.....@@.
    ............
    ....@@@@@...
    ..@@@.@@@@@.
    ..@@...@@@@.
    .@@@@@@@@@@@
    .@@@........
    .@@@........
    .@@@@.......
    .@@@@.......
    ..@@@@...@@.
    ..@@@@@.@@@.
    ....@@@@@...
    ............
    ............
    ............
    ............
    ............
    ............

# Character: U+00EB
u+00eb:
    ............
    ............
    ............
    ............
    ............
    ............
    ...@@@.@@@..
    ...@@@.@@@..
    ............
    ............
    ....@@@@@...
    ..@@@.@@@@@.
    ..@@...@@@@.
    .@@@@@@@@@@@
    .@@@........
    .@@@........
    .@@@@.......
    .@@@@.......
    ..@@@@...@@.
    ..@@@@@.@@@.
    ....@@@@@...
    ............
    ............
    ............
    ............
    ............
    ............

# Character: U+00EC
u+00ec:
    .......
    .......
    .......
    .......
    .......
    .@@@...
    ..@@@..
    ....@@.
    .......
    .......
    ...@@..
    .@@@@..
    ..@@@..
    ..@@@..
    ..@@@..
    ..@@@..
    ..@@@..
    ..@@@..
    ..@@@..
    ..@@@..
    .@@@@@.
    .......
    .......
    .......
    .......
    .......
    .......

# Character: U+00ED
u+00ed:
    .......
    .......
    .......
    .......
    .......
    ...@@@.
    ..@@@..
    .@@....
    .......
    .......
    ...@@..
    .@@@@..
    ..@@@..
    ..@@@..
    ..@@@..
    ..@@@..
    ..@@@..
    ..@@@..
    ..@@@..
    ..@@@..
    .@@@@@.
    .......
    .......
    .......
    .......
    .......
    .......

# Character: U+00EE
u+00ee:
    .......
    .......
    .......
    .......
    .......
    ..@@@..
    .@@@@@.
    @@...@@
    .......
    .......
    ...@@..
    .@@@@..
    ..@@@..
    ..@@@..
    ..@@@..
    ..@@@..
    ..@@@..
    ..@@@..
    ..@@@..
    ..@@@..
    .@@@@@.
    .......
    .......
    .......
    .......
    .......
    .......

# Character: U+00EF
u+00ef:
    ........
    ........
    ........
    ........
    ........
    ........
    .@@@.@@@
    .@@@.@@@
    ........
    ........
    ....@@..
    ..@@@@..
    ...@@@..
    ...@@@..
    ...@@@..
    ...@@@..
    ...@@@..
    ...@@@..
    ...@@@..
    ...@@@..
    ..@@@@@.
    ........
    ........
    ........
    ........
    ........
    ........

# Character: U+00F0
u+00f0:
    .............
    .............
    .............
    .............
    .@@@@.@@@....
    ..@@@@@@.....
    ....@@@......
    ...@@@@@.....
    ..@@@@@@@....
    ......@@@@...
    .....@@@@@@..
    ...@@@@@@@@..
    ..@@@@.@@@@@.
    ..@@@...@@@@.
    .@@@.....@@@.
    .@@@.....@@@.
    .@@@.....@@@.
    .@@@.....@@@.
    .@@@@...@@@..
    ..@@@@.@@@...
    ...@@@@@@....
    .............
    .............
    .............
    .............
    .............
    .............

# Character: U+00F1
u+00f1:
    .............
    .............
    .............
    .............
    .............
    ....@@@..@@..
    ...@@@@@@@...
    ..@@..@@@....
    .............
    .............
    ...@@.@@@@...
    .@@@@@@@@@@..
    ..@@@@..@@@..
    ..@@@...@@@..
    ..@@@...@@@..
    ..@@@...@@@..
    ..@@@...@@@..
    ..@@@...@@@..
    ..@@@...@@@..
    ..@@@...@@@..
    .@@@@@.@@@@@.
    .............
    .............
    .............
    .............
    .............
    .............

# Character: U+00F2
u+00f2:
    .............
    .............
    .............
    .............
    .............
    ...@@@.......
    ....@@@......
    ......@@.....
    .............
    .............
    ....@@@@@....
    ..@@@.@@@@@..
    ..@@...@@@@..
    .@@@....@@@@.
    .@@@....@@@@.
    .@@@.....@@@.
    .@@@@....@@@.
    .@@@@....@@@.
    ..@@@@...@@..
    ..@@@@@.@@@..
    ....@@@@@....
    .............
    .............
    .............
    .............
    .............
    .............

# Character: U+00F3
u+00f3:
    .............
    .............
    .............
    .............
    .............
    ......@@@....
    .....@@@.....
    ....@@.......
    .............
    .............
    ....@@@@@....
    ..@@@.@@@@@..
    ..@@...@@@@..
    .@@@....@@@@.
    .@@@....@@@@.
    .@@@.....@@@.
    .@@@@....@@@.
    .@@@@....@@@.
    ..@@@@...@@..
    ..@@@@@.@@@..
    ....@@@@@....
    .............
    .............
    .............
    .............
    .............
    .............

# Character: U+00F4
u+00f4:
    .............
    .............
    .............
    .............
    .............
    .....@@@.....
    ....@@@@@....
    ...@@...@@...
    ..@@.....@@..
    .............
    ....@@@@@....
    ..@@@.@@@@@..
    ..@@...@@@@..
    .@@@....@@@@.
    .@@@....@@@@.
    .@@@.....@@@.
    .@@@@....@@@.
    .@@@@....@@@.
    ..@@@@...@@..
    ..@@@@@.@@@..
    ....@@@@@....
    .............
    .............
    .............
    .............
    .............
    .............

# Character: U+00F5
u+00f5:
    .............
    .............
    .............
    .............
    .............
    ....@@@..@@..
    ...@@@@@@@...
    ..@@..@@@....
    .............
    .............
    ....@@@@@....
    ..@@@.@@@@@..
    ..@@...@@@@..
    .@@@....@@@@.
    .@@@....@@@@.
    .@@@.....@@@.
    .@@@@....@@@.
    .@@@@....@@@.
    ..@@@@...@@..
    ..@@@@@.@@@..
    ....@@@@@....
    .............
    .............
    .............
    .............
    .............
    .............

# Character: U+00F6
u+00f6:
    .............
    .............
    .............
    .............
    .............
    .............
    ...@@@.@@@...
    ...@@@.@@@...
    .............
    .............
    ....@@@@@....
    ..@@@.@@@@@..
    ..@@...@@@@..
    .@@@....@@@@.
    .@@@....@@@@.
    .@@@.....@@@.
    .@@@@....@@@.
    .@@@@....@@@.
    ..@@@@...@@..
    ..@@@@@.@@@..
    ....@@@@@....
    .............
    .............
    .............
    .............
    .............
    .............

# Character: U+00F7
u+00f7:
    ...............
    ...............
    ...............
    ...............
    ...............
    ...............
    ...............
    ...............
    ...............
    ...............
    ......@@@......
    ......@@@......
    ...............
    ...............
    ..@@@@@@@@@@@..
    ...............
    ...............
    ......@@@......
    ......@@@......
    ...............
    ...............
    ...............
    ...............
    ...............
    ...............
    ...............
    ...............

# Character: U+00F8
u+00f8:
    .............
    .............
    .............
    .............
    .............
    .............
    .............
    .............
    .............
    .............
    ....@@@@@.@@.
    ..@@@.@@@@@..
    ..@@...@@@@..
    .@@@...@@@@@.
    .@@@..@@@@@@.
    .@@@..@@.@@@.
    .@@@@@@..@@@.
    .@@@@@...@@@.
    ..@@@@...@@..
    ..@@@@@.@@@..
    .@@.@@@@@....
    .............
    .............
    .............
    .............
    .............
    .............

# Character: U+00F9
u+00f9:
    .............
    .............
    .............
    .............
    .............
    ....@@@......
    .....@@@.....
    .......@@....
    .............
    .............
    .@@@@..@@@@..
    ..@@@...@@@..
    ..@@@...@@@..
    ..@@@...@@@..
    ..@@@...@@@..
    ..@@@...@@@..
    ..@@@...@@@..
    ..@@@...@@@..
    ..@@@..@@@@..
    ...@@@@@@@@@.
    ....@@@.@@...
    .............
    .............
    .............
    .............
    .............
    .............

# Character: U+00FA
u+00fa:
    .............
    .............
    .............
    .............
    .............
    ......@@@....
    .....@@@.....
    ....@@.......
    .............
    .............
    .@@@@..@@@@..
    ..@@@...@@@..
    ..@@@...@@@..
    ..@@@...@@@..
    ..@@@...@@@..
    ..@@@...@@@..
    ..@@@...@@@..
    ..@@@...@@@..
    ..@@@..@@@@..
    ...@@@@@@@@@.
    ....@@@.@@...
    .............
    .............
    .............
    .............
    .............
    .............

# Character: U+00FB
u+00fb:
    .............
    .............
    .............
    .............
    .............
    .....@@@.....
    ....@@@@@....
    ...@@...@@...
    ..@@.....@@..
    .............
    .@@@@..@@@@..
    ..@@@...@@@..
    ..@@@...@@@..
    ..@@@...@@@..
    ..@@@...@@@..
    ..@@@...@@@..
    ..@@@...@@@..
    ..@@@...@@@..
    ..@@@..@@@@..
    ...@@@@@@@@@.
    ....@@@.@@...
    .............
    .............
    .............
    .............
    .............
    .............

# Character: U+00FC
u+00fc:
    .............
    .............
    .............
    .............
    .............
    .............
    ...@@@.@@@...
    ...@@@.@@@...
    .............
    .............
    .@@@@..@@@@..
    ..@@@...@@@..
    ..@@@...@@@..
    ..@@@...@@@..
    ..@@@...@@@..
    ..@@@...@@@..
    ..@@@...@@@..
    ..@@@...@@@..
    ..@@@..@@@@..
    ...@@@@@@@@@.
    ....@@@.@@...
    .............
    .............
    .............
    .............
    .............
    .............

# Character: U+00FD
u+00fd:
    ............
    ............
    ............
    ............
    ............
    ......@@@...
    .....@@@....
    ....@@......
    ............
    ............
    @@@@@...@@@@
    .@@@.....@@.
    .@@@.....@@.
    ..@@@...@@..
    ..@@@...@@..
    ...@@@.@@...
    ...@@@.@@...
    ....@@@@....
    ....@@@@....
    .....@@.....
    .....@@.....
    ....@@......
    ....@@......
    ...@@.......
    @@@@@.......
    @@@@........
    ............

# Character: U+00FE
u+00fe:
    .............
    .............
    .............
    .............
    ...@@........
    .@@@@........
    ..@@@........
    ..@@@........
    ..@@@........
    ..@@@........
    ..@@@@@@@@...
    ..@@@@.@@@@..
    ..@@@...@@@@.
    ..@@@...@@@@.
    ..@@@....@@@.
    ..@@@....@@@.
    ..@@@....@@@.
    ..@@@....@@@.
    ..@@@@...@@..
    ..@@@@@.@@@..
    ..@@@@@@@....
    ..@@@........
    ..@@@........
    ..@@@........
    ..@@@........
    .@@@@@.......
    .............

# Character: U+00FF
u+00ff:
    ............
    ............
    ............
    ............
    ............
    ............
    ..@@@..@@@..
    ..@@@..@@@..
    ............
    ............
    @@@@@...@@@@
    .@@@.....@@.
    .@@@.....@@.
    ..@@@...@@..
    ..@@@...@@..
    ...@@@.@@...
    ...@@@.@@...
    ....@@@@....
    ....@@@@....
    .....@@.....
    .....@@.....
    ....@@......
    ....@@......
    ...@@.......
    @@@@@.......
    @@@@........
    ............

# Character: U+0401
u+0401:
    ................
    ....@@@..@@@....
    ....@@@..@@@....
    ................
    ................
    .@@@@@@@@@@@@...
    ...@@@.....@@...
    ...@@@......@@..
    ...@@@..........
    ...@@@..........
    ...@@@...@@.....
    ...@@@...@@.....
    ...@@@@@@@@.....
    ...@@@...@@.....
    ...@@@...@@.....
    ...@@@..........
    ...@@@..........
    ...@@@..........
    ...@@@......@@..
    ...@@@.....@@@..
    .@@@@@@@@@@@@...
    ................
    ................
    ................
    ................
    ................

# Character: U+0402
u+0402:
    ......................
    ......................
    ......................
    ......................
    ......................
    ..@@@@@@@@@@@@@@@.....
    ..@@@...@@@...@@@.....
    ..@@....@@@....@@.....
    ........@@@...........
    ........@@@...........
    ........@@@...........
    ........@@@...........
    ........@@@@@@@@@@@...
    ........@@@@@...@@@@..
    ........@@@@.....@@@@.
    ........@@@.......@@@.
    ........@@@.......@@@.
    ........@@@.......@@@.
    ........@@@..@@@.@@@@.
    ........@@@..@@@@@@@..
    ......@@@@@@@.@@@@@...
    ......................
    ......................
    ......................
    ......................
    ......................

# Character: U+0403
u+0403:
    ................
    ........@@......
    .......@@@......
    ......@@........
    ................
    .@@@@@@@@@@@@@@.
    ...@@@......@@@.
    ...@@@.......@@.
    ...@@@..........
    ...@@@..........
    ...@@@..........
    ...@@@..........
    ...@@@..........
    ...@@@..........
    ...@@@..........
    ...@@@..........
    ...@@@..........
    ...@@@..........
    ...@@@..........
    ...@@@..........
    .@@@@@@@@.......
    ................
    ................
    ................
    ................
    ................

# Character: U+0404
u+0404:
    .................
    .................
    .................
    .................
    .................
    ......@@@@@@@.@@.
    ....@@@@...@@@@@.
    ...@@@.......@@@.
    ..@@@.........@@.
    ..@@@.........@@.
    .@@@....@@.......
    .@@@....@@.......
    .@@@@@@@@@.......
    .@@@....@@.......
    .@@@....@@.......
    .@@@.............
    ..@@@............
    ..@@@.........@@.
    ...@@@.......@@..
    ....@@@@...@@@...
    ......@@@@@@.....
    .................
    .................
    .................
    .................
    .................

# Character: U+0405
u+0405:
    ..............
    ..............
    ..............
    ..............
    ..............
    ...@@@@@@@@@..
    ..@@@...@@@@..
    .@@@.....@@@..
    .@@@......@@..
    .@@@@.....@@..
    ..@@@@........
    ...@@@@@......
    ....@@@@@@....
    ......@@@@@...
    ........@@@@..
    .........@@@@.
    .@@.......@@@.
    .@@.......@@@.
    .@@@.....@@@..
    .@@@@...@@@@..
    .@@@@@@@@@....
    ..............
    ..............
    ..............
    ..............
    ..............

# Character: U+0406
u+0406:
    .........
    .........
    .........
    .........
    .........
    .@@@@@@@.
    ...@@@...
    ...@@@...
    ...@@@...
    ...@@@...
    ...@@@...
    ...@@@...
    ...@@@...
    ...@@@...
    ...@@@...
    ...@@@...
    ...@@@...
    ...@@@...
    ...@@@...
    ...@@@...
    .@@@@@@@.
    .........
    .........
    .........
    .........
    .........

# Character: U+0407
u+0407:
    .........
    .@@@.@@@.
    .@@@.@@@.
    .........
    .........
    .@@@@@@@.
    ...@@@...
    ...@@@...
    ...@@@...
    ...@@@...
    ...@@@...
    ...@@@...
    ...@@@...
    ...@@@...
    ...@@@...
    ...@@@...
    ...@@@...
    ...@@@...
    ...@@@...
    ...@@@...
    .@@@@@@@.
    .........
    .........
    .........
    .........
    .........

# Character: U+0408
u+0408:
    ..........
    ..........
    ..........
    ..........
    ..........
    ..@@@@@@@.
    ....@@@...
    ....@@@...
    ....@@@...
    ....@@@...
    ....@@@...
    ....@@@...
    ....@@@...
    ....@@@...
    ....@@@...
    ....@@@...
    ....@@@...
    ....@@@...
    @@@.@@@...
    @@@.@@@...
    .@@@@@....
    ..........
    ..........
    ..........
    ..........
    ..........

# Character: U+0409
u+0409:
    ..........................
    ..........................
    ..........................
    ..........................
    ..........................
    ...@@@@@@@@@@@@@@.........
    .....@@.....@@@...........
    .....@@.....@@@...........
    .....@@.....@@@...........
    .....@@.....@@@...........
    .....@@.....@@@...........
    .....@@.....@@@...........
    .....@@.....@@@@@@@@@.....
    .....@@.....@@@....@@@@...
    .....@@.....@@@.....@@@...
    .....@@.....@@@......@@@..
    .....@@.....@@@......@@@..
    .....@@.....@@@......@@@..
    ..@@.@@.....@@@.....@@@...
    .@@@@@@.....@@@....@@@@...
    ..@@@@....@@@@@@@@@@@.....
    ..........................
    ..........................
    ..........................
    ..........................
    ..........................

# Character: U+040A
u+040a:
    ..........................
    ..........................
    ..........................
    ..........................
    ..........................
    .@@@@@@@..@@@@@@@.........
    ...@@@......@@@...........
    ...@@@......@@@...........
    ...@@@......@@@...........
    ...@@@......@@@...........
    ...@@@......@@@...........
    ...@@@......@@@...........
    ...@@@@@@@@@@@@@@@@@@.....
    ...@@@......@@@....@@@@...
    ...@@@......@@@.....@@@...
    ...@@@......@@@......@@@..
    ...@@@......@@@......@@@..
    ...@@@......@@@......@@@..
    ...@@@......@@@.....@@@...
    ...@@@......@@@....@@@@...
    .@@@@@@@..@@@@@@@@@@@.....
    ..........................
    ..........................
    ..........................
    ..........................
    ..........................

# Character: U+040B
u+040b:
    .....................
    .....................
    .....................
    .....................
    .....................
    .@@@@@@@@@@@@@@@.....
    .@@@...@@@...@@@.....
    .@@....@@@....@@.....
    .@@....@@@....@@.....
    .......@@@...........
    .......@@@...........
    .......@@@...........
    .......@@@@@@@@@@....
    .......@@@@....@@@...
    .......@@@.....@@@...
    .......@@@.....@@@...
    .......@@@.....@@@...
    .......@@@.....@@@...
    .......@@@.....@@@...
    .......@@@.....@@@...
    .....@@@@@@@.@@@@@@@.
    .....................
    .....................
    .....................
    .....................
    .....................

# Character: U+040C
u+040c:
    ..................
    .........@@.......
    ........@@@.......
    .......@@.........
    ..................
    .@@@@@@@.@@@@@@@..
    ...@@@.....@@@....
    ...@@@....@@@.....
    ...@@@...@@@......
    ...@@@..@@@.......
    ...@@@.@@@........
    ...@@@@@@.........
    ...@@@@@@.........
    ...@@@@@@@........
    ...@@@.@@@@.......
    ...@@@..@@@@......
    ...@@@...@@@@.....
    ...@@@....@@@@....
    ...@@@.....@@@@...
    ...@@@......@@@@..
    .@@@@@@@..@@@@@@@@
    ..................
    ..................
    ..................
    ..................
    ..................

# Character: U+040E
u+040e:
    ..................
    ..................
    ......@@..@@......
    .......@@@@.......
    ........@@........
    .@@@@@@@..@@@@@@@.
    ...@@@......@@@...
    ...@@@......@@@...
    ...@@@......@@@...
    ...@@@......@@@...
    ...@@@......@@@...
    ...@@@......@@@...
    ....@@@.....@@@...
    .....@@@@@@@@@@...
    ............@@@...
    ............@@@...
    ............@@@...
    ............@@@...
    ...@@......@@@....
    ...@@@....@@@.....
    ....@@@@@@@@......
    ..................
    ..................
    ..................
    ..................
    ..................

# Character: U+040F
u+040f:
    ..................
    ..................
    ..................
    ..................
    ..................
    .@@@@@@@..@@@@@@@.
    ...@@@......@@@...
    ...@@@......@@@...
    ...@@@......@@@...
    ...@@@......@@@...
    ...@@@......@@@...
    ...@@@......@@@...
    ...@@@......@@@...
    ...@@@......@@@...
    ...@@@......@@@...
    ...@@@......@@@...
    ...@@@......@@@...
    ...@@@......@@@...
    ...@@@......@@@...
    ...@@@......@@@...
    .@@@@@@@@@@@@@@@@.
    .......@@@@.......
    ........@@........
    ........@@........
    ..................
    ..................

# Character: U+0410
u+0410:
    ..................
    ..................
    ..................
    ..................
    ..................
    ........@@........
    ........@@........
    .......@@@@.......
    .......@@@@.......
    ......@@@@@@......
    ......@@.@@@......
    .....@@@.@@@@.....
    .....@@...@@@.....
    ....@@@...@@@@....
    ....@@.....@@@....
    ...@@@@@@@@@@@@...
    ...@@.......@@@...
    ..@@@.......@@@@..
    ..@@.........@@@..
    .@@@.........@@@@.
    @@@@@@.....@@@@@@@
    ..................
    ..................
    ..................
    ..................
    ..................

# Character: U+0411
u+0411:
    .................
    .................
    .................
    .................
    .................
    .@@@@@@@@@@@@@@..
    ...@@@......@@@..
    ...@@@.......@@..
    ...@@@...........
    ...@@@...........
    ...@@@...........
    ...@@@...........
    ...@@@@@@@@@@@...
    ...@@@.....@@@@..
    ...@@@......@@@..
    ...@@@.......@@@.
    ...@@@.......@@@.
    ...@@@.......@@@.
    ...@@@......@@@..
    ...@@@.....@@@@..
    .@@@@@@@@@@@@....
    .................
    .................
    .................
    .................
    .................

# Character: U+0412
u+0412:
    .................
    .................
    .................
    .................
    .................
    .@@@@@@@@@@@@....
    ...@@@.....@@@...
    ...@@@......@@@..
    ...@@@......@@@..
    ...@@@......@@@..
    ...@@@......@@@..
    ...@@@.....@@@...
    ...@@@@@@@@@@@...
    ...@@@.....@@@@..
    ...@@@......@@@..
    ...@@@.......@@@.
    ...@@@.......@@@.
    ...@@@.......@@@.
    ...@@@......@@@..
    ...@@@.....@@@@..
    .@@@@@@@@@@@@....
    .................
    .................
    .................
    .................
    .................

# Character: U+0413
u+0413:
    ................
    ................
    ................
    ................
    ................
    .@@@@@@@@@@@@@@.
    ...@@@......@@@.
    ...@@@.......@@.
    ...@@@..........
    ...@@@..........
    ...@@@..........
    ...@@@..........
    ...@@@..........
    ...@@@..........
    ...@@@..........
    ...@@@..........
    ...@@@..........
    ...@@@..........
    ...@@@..........
    ...@@@..........
    .@@@@@@@@.......
    ................
    ................
    ................
    ................
    ................

# Character: U+0414
u+0414:
    .................
    .................
    .................
    .................
    .................
    ..@@@@@@@@@@@@@@.
    ....@@.....@@@...
    ....@@.....@@@...
    ....@@.....@@@...
    ....@@.....@@@...
    ....@@.....@@@...
    ....@@.....@@@...
    ....@@.....@@@...
    ....@@.....@@@...
    ....@@.....@@@...
    ...@@......@@@...
    ...@@......@@@...
    ...@@......@@@...
    ..@@.......@@@...
    ..@@.......@@@...
    @@@@@@@@@@@@@@@@.
    @@@..........@@@.
    @@............@@.
    @@............@@.
    .................
    .................

# Character: U+0415
u+0415:
    ................
    ................
    ................
    ................
    ................
    .@@@@@@@@@@@@@..
    ...@@@.....@@@..
    ...@@@......@@..
    ...@@@..........
    ...@@@..........
    ...@@@...@@.....
    ...@@@...@@.....
    ...@@@@@@@@.....
    ...@@@...@@.....
    ...@@@...@@.....
    ...@@@..........
    ...@@@..........
    ...@@@..........
    ...@@@.......@@.
    ...@@@......@@@.
    .@@@@@@@@@@@@@..
    ................
    ................
    ................
    ................
    ................

# Character: U+0416
u+0416:
    .........................
    .........................
    .........................
    .........................
    .........................
    .@@@@@@..@@@@@@@..@@@@@@.
    ...@@@.....@@@.....@@@...
    ....@@@....@@@....@@@....
    .....@@@...@@@...@@@.....
    ......@@@..@@@..@@@......
    .......@@@.@@@.@@@.......
    ........@@@@@@@@@........
    ........@@@@@@@@@........
    .......@@@@@@@@@@@.......
    ......@@@@.@@@.@@@@......
    .....@@@@..@@@..@@@@.....
    ....@@@@...@@@...@@@@....
    ...@@@@....@@@....@@@@...
    ..@@@@.....@@@.....@@@@..
    .@@@@......@@@......@@@@.
    @@@@@@...@@@@@@@...@@@@@@
    .........................
    .........................
    .........................
    .........................
    .........................

# Character: U+0417
u+0417:
    .............
    .............
    .............
    .............
    .............
    ..@@@@@@@@...
    ..@@@...@@@..
    ..@@.....@@@.
    .........@@@.
    .........@@@.
    .........@@@.
    ........@@@..
    ......@@@@...
    ........@@@..
    .........@@@.
    .........@@@.
    .........@@@.
    .@@......@@@.
    .@@......@@@.
    ..@@....@@@..
    ...@@@@@@@...
    .............
    .............
    .............
    .............
    .............

# Character: U+0418
u+0418:
    ..................
    ..................
    ..................
    ..................
    ..................
    .@@@@@@@..@@@@@@@.
    ...@@@......@@@...
    ...@@@......@@@...
    ...@@@.....@@@@...
    ...@@@....@@@@@...
    ...@@@....@@@@@...
    ...@@@...@@@@@@...
    ...@@@..@@@.@@@...
    ...@@@..@@..@@@...
    ...@@@.@@@..@@@...
    ...@@@@@@...@@@...
    ...@@@@@....@@@...
    ...@@@@@....@@@...
    ...@@@@.....@@@...
    ...@@@......@@@...
    .@@@@@@@..@@@@@@@.
    ..................
    ..................
    ..................
    ..................
    ..................

# Character: U+0419
u+0419:
    ..................
    ..................
    ......@@..@@......
    ......@@@@@@......
    ........@@........
    .@@@@@@@..@@@@@@@.
    ...@@@......@@@...
    ...@@@......@@@...
    ...@@@.....@@@@...
    ...@@@....@@@@@...
    ...@@@....@@@@@...
    ...@@@...@@@@@@...
    ...@@@..@@@.@@@...
    ...@@@..@@..@@@...
    ...@@@.@@@..@@@...
    ...@@@@@@...@@@...
    ...@@@@@....@@@...
    ...@@@@@....@@@...
    ...@@@@.....@@@...
    ...@@@......@@@...
    .@@@@@@@..@@@@@@@.
    ..................
    ..................
    ..................
    ..................
    ..................

# Character: U+041A
u+041a:
    ..................
    ..................
    ..................
    ..................
    ..................
    .@@@@@@@.@@@@@@@..
    ...@@@.....@@@....
    ...@@@....@@@.....
    ...@@@...@@@......
    ...@@@..@@@.......
    ...@@@.@@@........
    ...@@@@@@.........
    ...@@@@@@.........
    ...@@@@@@@........
    ...@@@.@@@@.......
    ...@@@..@@@@......
    ...@@@...@@@@.....
    ...@@@....@@@@....
    ...@@@.....@@@@...
    ...@@@......@@@@..
    .@@@@@@@..@@@@@@@@
    ..................
    ..................
    ..................
    ..................
    ..................

# Character: U+041B
u+041b:
    ..................
    ..................
    ..................
    ..................
    ..................
    ...@@@@@@@@@@@@@@.
    .....@@.....@@@...
    .....@@.....@@@...
    .....@@.....@@@...
    .....@@.....@@@...
    .....@@.....@@@...
    .....@@.....@@@...
    .....@@.....@@@...
    .....@@.....@@@...
    .....@@.....@@@...
    .....@@.....@@@...
    .....@@.....@@@...
    .....@@.....@@@...
    ..@@.@@.....@@@...
    .@@@@@@.....@@@...
    ..@@@@....@@@@@@@.
    ..................
    ..................
    ..................
    ..................
    ..................

# Character: U+041C
u+041c:
    ......................
    ......................
    ......................
    ......................
    ......................
    .@@@@@@........@@@@@@.
    ...@@@@........@@@@...
    ...@@@@........@@@@...
    ...@@@@@......@@@@@...
    ...@@@@@......@@@@@...
    ...@@@@@@....@@@@@@...
    ...@@.@@@....@@.@@@...
    ...@@.@@@....@@.@@@...
    ...@@.@@@@..@@@.@@@...
    ...@@..@@@..@@..@@@...
    ...@@..@@@@@@@..@@@...
    ...@@...@@@@@...@@@...
    ...@@...@@@@@...@@@...
    ...@@...@@@@@...@@@...
    ...@@....@@@....@@@...
    .@@@@@@..@@@..@@@@@@@.
    ......................
    ......................
    ......................
    ......................
    ......................

# Character: U+041D
u+041d:
    ..................
    ..................
    ..................
    ..................
    ..................
    .@@@@@@@..@@@@@@@.
    ...@@@......@@@...
    ...@@@......@@@...
    ...@@@......@@@...
    ...@@@......@@@...
    ...@@@......@@@...
    ...@@@......@@@...
    ...@@@@@@@@@@@@...
    ...@@@......@@@...
    ...@@@......@@@...
    ...@@@......@@@...
    ...@@@......@@@...
    ...@@@......@@@...
    ...@@@......@@@...
    ...@@@......@@@...
    .@@@@@@@..@@@@@@@.
    ..................
    ..................
    ..................
    ..................
    ..................

# Character: U+041E
u+041e:
    ..................
    ..................
    ..................
    ..................
    ..................
    ......@@@@@@......
    ....@@@@..@@@@....
    ...@@@......@@@...
    ..@@@........@@@..
    ..@@@........@@@..
    .@@@..........@@@.
    .@@@..........@@@.
    .@@@..........@@@.
    .@@@..........@@@.
    .@@@..........@@@.
    .@@@..........@@@.
    ..@@@........@@@..
    ..@@@........@@@..
    ...@@@......@@@...
    ....@@@@..@@@@....
    ......@@@@@@......
    ..................
    ..................
    ..................
    ..................
    ..................

# Character: U+041F
u+041f:
    ..................
    ..................
    ..................
    ..................
    ..................
    .@@@@@@@@@@@@@@@@.
    ...@@@......@@@...
    ...@@@......@@@...
    ...@@@......@@@...
    ...@@@......@@@...
    ...@@@......@@@...
    ...@@@......@@@...
    ...@@@......@@@...
    ...@@@......@@@...
    ...@@@......@@@...
    ...@@@......@@@...
    ...@@@......@@@...
    ...@@@......@@@...
    ...@@@......@@@...
    ...@@@......@@@...
    .@@@@@@@..@@@@@@@.
    ..................
    ..................
    ..................
    ..................
    ..................

# Character: U+0420
u+0420:
    ...............
    ...............
    ...............
    ...............
    ...............
    .@@@@@@@@@@@...
    ...@@@....@@@@.
    ...@@@.....@@@.
    ...@@@......@@@
    ...@@@......@@@
    ...@@@......@@@
    ...@@@.....@@@.
    ...@@@....@@@@.
    ...@@@@@@@@@...
    ...@@@.........
    ...@@@.........
    ...@@@.........
    ...@@@.........
    ...@@@.........
    ...@@@.........
    .@@@@@@@.......
    ...............
    ...............
    ...............
    ...............
    ...............

# Character: U+0421
u+0421:
    .................
    .................
    .................
    .................
    .................
    ......@@@@@@@.@@.
    ....@@@@...@@@@@.
    ...@@@.......@@@.
    ..@@@.........@@.
    ..@@@.........@@.
    .@@@.............
    .@@@.............
    .@@@.............
    .@@@.............
    .@@@.............
    .@@@.............
    ..@@@............
    ..@@@.........@@.
    ...@@@.......@@..
    ....@@@@...@@@...
    ......@@@@@@.....
    .................
    .................
    .................
    .................
    .................

# Character: U+0422
u+0422:
    ...............
    ...............
    ...............
    ...............
    ...............
    @@@@@@@@@@@@@@@
    @@@...@@@...@@@
    @@....@@@....@@
    @@....@@@....@@
    ......@@@......
    ......@@@......
    ......@@@......
    ......@@@......
    ......@@@......
    ......@@@......
    ......@@@......
    ......@@@......
    ......@@@......
    ......@@@......
    ......@@@......
    ....@@@@@@@....
    ...............
    ...............
    ...............
    ...............
    ...............

# Character: U+0423
u+0423:
    ..................
    ..................
    ..................
    ..................
    ..................
    .@@@@@@@..@@@@@@@.
    ...@@@......@@@...
    ...@@@......@@@...
    ...@@@......@@@...
    ...@@@......@@@...
    ...@@@......@@@...
    ...@@@......@@@...
    ....@@@.....@@@...
    .....@@@@@@@@@@...
    ............@@@...
    ............@@@...
    ............@@@...
    ............@@@...
    ...@@......@@@....
    ...@@@....@@@.....
    ....@@@@@@@@......
    ..................
    ..................
    ..................
    ..................
    ..................

# Character: U+0424
u+0424:
    .....................
    .....................
    .....................
    .....................
    .......@@@@@@@.......
    .........@@@.........
    .........@@@.........
    ...@@@@@@@@@@@@@@@...
    ..@@@....@@@@...@@@..
    .@@@.....@@@.....@@@.
    .@@@.....@@@.....@@@.
    .@@@.....@@@.....@@@.
    .@@@.....@@@.....@@@.
    .@@@.....@@@.....@@@.
    .@@@.....@@@.....@@@.
    .@@@.....@@@.....@@@.
    ..@@@...@@@@@...@@@..
    ...@@@@@@@@@@@@@@@...
    .........@@@.........
    .........@@@.........
    .......@@@@@@@.......
    .....................
    .....................
    .....................
    .....................
    .....................

# Character: U+0425
u+0425:
    ..................
    ..................
    ..................
    ..................
    ..................
    @@@@@@@@...@@@@@@@
    ..@@@@.......@@@..
    ...@@@@.....@@@...
    ....@@@....@@@....
    ....@@@@...@@.....
    .....@@@@.@@@.....
    ......@@@@@@......
    .......@@@@.......
    .......@@@@.......
    ......@@@@@@......
    .....@@@.@@@@.....
    .....@@...@@@@....
    ....@@@....@@@....
    ...@@@.....@@@@...
    ..@@@.......@@@@..
    @@@@@@@...@@@@@@@@
    ..................
    ..................
    ..................
    ..................
    ..................

# Character: U+0426
u+0426:
    ..................
    ..................
    ..................
    ..................
    ..................
    .@@@@@@@..@@@@@@@.
    ...@@@......@@@...
    ...@@@......@@@...
    ...@@@......@@@...
    ...@@@......@@@...
    ...@@@......@@@...
    ...@@@......@@@...
    ...@@@......@@@...
    ...@@@......@@@...
    ...@@@......@@@...
    ...@@@......@@@...
    ...@@@......@@@...
    ...@@@......@@@...
    ...@@@......@@@...
    ...@@@......@@@...
    .@@@@@@@@@@@@@@@@.
    ..............@@@.
    ...............@@.
    ...............@@.
    ..................
    ..................

# Character: U+0427
u+0427:
    ..................
    ..................
    ..................
    ..................
    ..................
    .@@@@@@@..@@@@@@@.
    ...@@@......@@@...
    ...@@@......@@@...
    ...@@@......@@@...
    ...@@@......@@@...
    ...@@@......@@@...
    ...@@@......@@@...
    ....@@@.....@@@...
    .....@@@@@@@@@@...
    ............@@@...
    ............@@@...
    ............@@@...
    ............@@@...
    ............@@@...
    ............@@@...
    ..........@@@@@@@.
    ..................
    ..................
    ..................
    ..................
    ..................

# Character: U+0428
u+0428:
    .......................
    .......................
    .......................
    .......................
    .......................
    .@@@@@@@@@@@@@@@@@@@@@.
    ...@@@....@@@....@@@...
    ...@@@....@@@....@@@...
    ...@@@....@@@....@@@...
    ...@@@....@@@....@@@...
    ...@@@....@@@....@@@...
    ...@@@....@@@....@@@...
    ...@@@....@@@....@@@...
    ...@@@....@@@....@@@...
    ...@@@....@@@....@@@...
    ...@@@....@@@....@@@...
    ...@@@....@@@....@@@...
    ...@@@....@@@....@@@...
    ...@@@....@@@....@@@...
    ...@@@....@@@....@@@...
    .@@@@@@@@@@@@@@@@@@@@@.
    .......................
    .......................
    .......................
    .......................
    .......................

# Character: U+0429
u+0429:
    .......................
    .......................
    .......................
    .......................
    .......................
    .@@@@@@@@@@@@@@@@@@@@@.
    ...@@@....@@@....@@@...
    ...@@@....@@@....@@@...
    ...@@@....@@@....@@@...
    ...@@@....@@@....@@@...
    ...@@@....@@@....@@@...
    ...@@@....@@@....@@@...
    ...@@@....@@@....@@@...
    ...@@@....@@@....@@@...
    ...@@@....@@@....@@@...
    ...@@@....@@@....@@@...
    ...@@@....@@@....@@@...
    ...@@@....@@@....@@@...
    ...@@@....@@@....@@@...
    ...@@@....@@@....@@@...
    .@@@@@@@@@@@@@@@@@@@@@.
    ...................@@@.
    ....................@@.
    ....................@@.
    .......................
    .......................

# Character: U+042A
u+042a:
    ..................
    ..................
    ..................
    ..................
    ..................
    .@@@@@@@@@........
    .@@@.@@@..........
    .@@..@@@..........
    .@@..@@@..........
    .....@@@..........
    .....@@@..........
    .....@@@..........
    .....@@@@@@@@@....
    .....@@@....@@@@..
    .....@@@.....@@@..
    .....@@@......@@@.
    .....@@@......@@@.
    .....@@@......@@@.
    .....@@@.....@@@..
    .....@@@....@@@@..
    ...@@@@@@@@@@@....
    ..................
    ..................
    ..................
    ..................
    ..................

# Character: U+042B
u+042b:
    .....................
    .....................
    .....................
    .....................
    .....................
    .@@@@@@@......@@@@@@@
    ...@@@..........@@@..
    ...@@@..........@@@..
    ...@@@..........@@@..
    ...@@@..........@@@..
    ...@@@..........@@@..
    ...@@@..........@@@..
    ...@@@@@@@@@....@@@..
    ...@@@....@@@@..@@@..
    ...@@@.....@@@..@@@..
    ...@@@......@@@.@@@..
    ...@@@......@@@.@@@..
    ...@@@......@@@.@@@..
    ...@@@.....@@@..@@@..
    ...@@@....@@@@..@@@..
    .@@@@@@@@@@@..@@@@@@@
    .....................
    .....................
    .....................
    .....................
    .....................

# Character: U+042C
u+042c:
    ................
    ................
    ................
    ................
    ................
    .@@@@@@@........
    ...@@@..........
    ...@@@..........
    ...@@@..........
    ...@@@..........
    ...@@@..........
    ...@@@..........
    ...@@@@@@@@@....
    ...@@@....@@@@..
    ...@@@.....@@@..
    ...@@@......@@@.
    ...@@@......@@@.
    ...@@@......@@@.
    ...@@@.....@@@..
    ...@@@....@@@@..
    .@@@@@@@@@@@....
    ................
    ................
    ................
    ................
    ................

# Character: U+042D
u+042d:
    .................
    .................
    .................
    .................
    .................
    .@@.@@@@@@@......
    .@@@@@...@@@@....
    .@@@.......@@@...
    .@@.........@@@..
    .@@.........@@@..
    .......@@....@@@.
    .......@@....@@@.
    .......@@@@@@@@@.
    .......@@....@@@.
    .......@@....@@@.
    .............@@@.
    ............@@@..
    .@@.........@@@..
    ..@@.......@@@...
    ...@@@...@@@@....
    .....@@@@@@......
    .................
    .................
    .................
    .................
    .................

# Character: U+042E
u+042e:
    ........................
    ........................
    ........................
    ........................
    ........................
    .@@@@@@@....@@@@@.......
    ...@@@....@@@@.@@@@.....
    ...@@@...@@@.....@@@....
    ...@@@..@@@.......@@@...
    ...@@@..@@@.......@@@...
    ...@@@.@@@.........@@@..
    ...@@@.@@@.........@@@..
    ...@@@@@@@.........@@@..
    ...@@@.@@@.........@@@..
    ...@@@.@@@.........@@@..
    ...@@@.@@@.........@@@..
    ...@@@..@@@.......@@@...
    ...@@@..@@@.......@@@...
    ...@@@...@@@.....@@@....
    ...@@@....@@@@.@@@@.....
    .@@@@@@@....@@@@@.......
    ........................
    ........................
    ........................
    ........................
    ........................

# Character: U+042F
u+042f:
    .................
    .................
    .................
    .................
    .................
    .....@@@@@@@@@@@.
    ...@@@@....@@@...
    ...@@@.....@@@...
    ..@@@......@@@...
    ..@@@......@@@...
    ..@@@......@@@...
    ...@@@.....@@@...
    ...@@@@....@@@...
    .....@@@@@@@@@...
    .....@@@...@@@...
    ....@@@@...@@@...
    ....@@@....@@@...
    ...@@@@....@@@...
    ...@@@.....@@@...
    ..@@@@.....@@@...
    .@@@@....@@@@@@@.
    .................
    .................
    .................
    .................
    .................

# Character: U+0430
u+0430:
    ............
    ............
    ............
    ............
    ............
    ............
    ............
    ............
    ............
    ............
    ...@@@@@@...
    ..@@@..@@@..
    ..@@@..@@@..
    .......@@@..
    .....@@@@@..
    ...@@@@@@@..
    ..@@@..@@@..
    .@@@...@@@..
    .@@@..@@@@@@
    .@@@@@@@@@@@
    ..@@@@@.@@@.
    ............
    ............
    ............
    ............
    ............

# Character: U+0431
u+0431:
    .............
    .............
    .............
    .............
    .............
    ........@@@..
    ...@@@@@@@...
    ..@@@@@@.....
    .@@@@........
    .@@@.........
    .@@@.........
    .@@@@@@@@....
    .@@@@.@@@@@..
    .@@@...@@@@..
    .@@@....@@@@.
    .@@@....@@@@.
    .@@@.....@@@.
    .@@@@....@@@.
    ..@@@@...@@@.
    ...@@@@@@@@..
    ....@@@@@@...
    .............
    .............
    .............
    .............
    .............

# Character: U+0432
u+0432:
    .............
    .............
    .............
    .............
    .............
    .............
    .............
    .............
    .............
    .............
    .@@@@@@@@@@..
    ..@@@@..@@@@.
    ..@@@....@@@.
    ..@@@....@@@.
    ..@@@...@@@..
    ..@@@@@@@@@..
    ..@@@...@@@..
    ..@@@....@@@.
    ..@@@....@@@.
    ..@@@@..@@@@.
    .@@@@@@@@@@..
    .............
    .............
    .............
    .............
    .............

# Character: U+0433
u+0433:
    ...........
    ...........
    ...........
    ...........
    ...........
    ...........
    ...........
    ...........
    ...........
    ...........
    .@@@@@@@@@.
    ..@@@..@@@.
    ..@@@...@@.
    ..@@@......
    ..@@@......
    ..@@@......
    ..@@@......
    ..@@@......
    ..@@@......
    ..@@@......
    .@@@@@.....
    ...........
    ...........
    ...........
    ...........
    ...........

# Character: U+0434
u+0434:
    .............
    .............
    .............
    .............
    .............
    .............
    .............
    .............
    .............
    .............
    .@@@@@@@@@@@.
    ...@@...@@@..
    ...@@...@@@..
    ...@@...@@@..
    ...@@...@@@..
    ...@@...@@@..
    ...@@...@@@..
    ..@@....@@@..
    ..@@....@@@..
    ..@@....@@@..
    @@@@@@@@@@@@.
    @@@......@@@.
    @@........@@.
    @@........@@.
    .............
    .............

# Character: U+0435
u+0435:
    ............
    ............
    ............
    ............
    ............
    ............
    ............
    ............
    ............
    ............
    ....@@@@@...
    ..@@@..@@@..
    ..@@....@@@.
    .@@@....@@@.
    .@@@@@@@@@@.
    .@@@........
    .@@@........
    .@@@@.......
    ..@@@@...@@.
    ..@@@@@.@@@.
    ....@@@@@...
    ............
    ............
    ............
    ............
    ............

# Character: U+0436
u+0436:
    ...................
    ...................
    ...................
    ...................
    ...................
    ...................
    ...................
    ...................
    ...................
    ...................
    ..@@@@@@@@@@@@@@@..
    ....@@..@@@..@@....
    .....@@.@@@.@@.....
    ......@@@@@@@......
    ......@@@@@@@......
    ......@@@@@@@......
    .....@@@@@@@@@.....
    ....@@@.@@@.@@@....
    ...@@@..@@@..@@@...
    ..@@@...@@@...@@@..
    .@@@@@.@@@@@.@@@@@.
    ...................
    ...................
    ...................
    ...................
    ...................

# Character: U+0437
u+0437:
    ...........
    ...........
    ...........
    ...........
    ...........
    ...........
    ...........
    ...........
    ...........
    ...........
    ..@@@@@@@..
    .@@@...@@@.
    .@@....@@@.
    .......@@@.
    .......@@..
    .....@@@@..
    .......@@@.
    .......@@@.
    .@@....@@@.
    .@@@..@@@@.
    ..@@@@@@@..
    ...........
    ...........
    ...........
    ...........
    ...........

# Character: U+0438
u+0438:
    ..............
    ..............
    ..............
    ..............
    ..............
    ..............
    ..............
    ..............
    ..............
    ..............
    .@@@@@..@@@@@.
    ..@@@...@@@@..
    ..@@@..@@@@@..
    ..@@@..@@@@@..
    ..@@@.@@.@@@..
    ..@@@.@@.@@@..
    ..@@@@@..@@@..
    ..@@@@@..@@@..
    ..@@@@...@@@..
    ..@@@@...@@@..
    .@@@@@..@@@@@.
    ..............
    ..............
    ..............
    ..............
    ..............

# Character: U+0439
u+0439:
    ..............
    ..............
    ..............
    ..............
    ..............
    ..............
    ..............
    ....@@..@@....
    ....@@@@@@....
    ......@@......
    .@@@@@..@@@@@.
    ..@@@...@@@@..
    ..@@@..@@@@@..
    ..@@@..@@@@@..
    ..@@@.@@.@@@..
    ..@@@.@@.@@@..
    ..@@@@@..@@@..
    ..@@@@@..@@@..
    ..@@@@...@@@..
    ..@@@@...@@@..
    .@@@@@..@@@@@.
    ..............
    ..............
    ..............
    ..............
    ..............

# Character: U+043A
u+043a:
    .............
    .............
    .............
    .............
    .............
    .............
    .............
    .............
    .............
    .............
    .@@@@.@@@@@..
    ..@@@..@@....
    ..@@@.@@.....
    ..@@@@@......
    ..@@@@@......
    ..@@@@@......
    ..@@@@@@.....
    ..@@@.@@@....
    ..@@@..@@@...
    ..@@@...@@@..
    .@@@@@.@@@@@@
    .............
    .............
    .............
    .............
    .............

# Character: U+043B
u+043b:
    .............
    .............
    .............
    .............
    .............
    .............
    .............
    .............
    .............
    .............
    ..@@@@@@@@@@.
    ...@@...@@@..
    ...@@...@@@..
    ...@@...@@@..
    ...@@...@@@..
    ...@@...@@@..
    ...@@...@@@..
    ...@@...@@@..
    ...@@...@@@..
    .@@@@...@@@..
    .@@@...@@@@@.
    .............
    .............
    .............
    .............
    .............

# Character: U+043C
u+043c:
    ...................
    ...................
    ...................
    ...................
    ...................
    ...................
    ...................
    ...................
    ...................
    ...................
    .@@@@@.......@@@@@.
    ..@@@@......@@@@@..
    ..@@@@@.....@@@@@..
    ..@@@@@....@@.@@@..
    ..@@.@@@...@@.@@@..
    ..@@.@@@..@@..@@@..
    ..@@..@@@.@@..@@@..
    ..@@..@@@@@...@@@..
    ..@@...@@@@...@@@..
    ..@@...@@@@...@@@..
    .@@@@...@@...@@@@@.
    ...................
    ...................
    ...................
    ...................
    ...................

# Character: U+043D
u+043d:
    ..............
    ..............
    ..............
    ..............
    ..............
    ..............
    ..............
    ..............
    ..............
    ..............
    .@@@@@..@@@@@.
    ..@@@....@@@..
    ..@@@....@@@..
    ..@@@....@@@..
    ..@@@....@@@..
    ..@@@@@@@@@@..
    ..@@@....@@@..
    ..@@@....@@@..
    ..@@@....@@@..
    ..@@@....@@@..
    .@@@@@..@@@@@.
    ..............
    ..............
    ..............
    ..............
    ..............

# Character: U+043E
u+043e:
    .............
    .............
    .............
    .............
    .............
    .............
    .............
    .............
    .............
    .............
    ....@@@@@....
    ..@@@.@@@@@..
    ..@@...@@@@..
    .@@@....@@@@.
    .@@@....@@@@.
    .@@@.....@@@.
    .@@@@....@@@.
    .@@@@....@@@.
    ..@@@@...@@..
    ..@@@@@.@@@..
    ....@@@@@....
    .............
    .............
    .............
    .............
    .............

# Character: U+043F
u+043f:
    ..............
    ..............
    ..............
    ..............
    ..............
    ..............
    ..............
    ..............
    ..............
    ..............
    .@@@@@@@@@@@@.
    ..@@@....@@@..
    ..@@@....@@@..
    ..@@@....@@@..
    ..@@@....@@@..
    ..@@@....@@@..
    ..@@@....@@@..
    ..@@@....@@@..
    ..@@@....@@@..
    ..@@@....@@@..
    .@@@@@..@@@@@.
    ..............
    ..............
    ..............
    ..............
    ..............

# Character: U+0440
u+0440:
    .............
    .............
    .............
    .............
    .............
    .............
    .............
    .............
    .............
    .............
    ...@@@@@@@...
    .@@@@@.@@@@..
    ..@@@...@@@@.
    ..@@@...@@@@.
    ..@@@....@@@.
    ..@@@....@@@.
    ..@@@....@@@.
    ..@@@....@@@.
    ..@@@@...@@..
    ..@@@@@.@@@..
    ..@@@@@@@....
    ..@@@........
    ..@@@........
    ..@@@........
    ..@@@........
    .@@@@@.......

# Character: U+0441
u+0441:
    @@@@@@@@@@@@
    ............
    ............
    ............
    ............
    ............
    ............
    ............
    ............
    ............
    ....@@@@@...
    ..@@@..@@@@.
    ..@@....@@@.
    .@@@........
    .@@@........
    .@@@........
    .@@@@.......
    .@@@@.......
    ..@@@@...@@.
    ..@@@@@.@@@.
    ....@@@@@...
    ............
    ............
    ............
    ............
    ............

# Character: U+0442
u+0442:
    @@@@@@@@@@@@@
    .............
    .............
    .............
    .............
    .............
    .............
    .............
    .............
    .............
    .@@@@@@@@@@@.
    .@@@.@@@.@@@.
    .@@..@@@..@@.
    .....@@@.....
    .....@@@.....
    .....@@@.....
    .....@@@.....
    .....@@@.....
    .....@@@.....
    .....@@@.....
    ....@@@@@....
    .............
    .............
    .............
    .............
    .............

# Character: U+0443
u+0443:
    @@@@@@@@@@@@
    ............
    ............
    ............
    ............
    ............
    ............
    ............
    ............
    ............
    @@@@@...@@@@
    .@@@.....@@.
    .@@@.....@@.
    ..@@@...@@..
    ..@@@...@@..
    ...@@@.@@...
    ...@@@.@@...
    ....@@@@....
    ....@@@@....
    .....@@.....
    .....@@.....
    ....@@......
    ....@@......
    ...@@.......
    @@@@@.......
    @@@@........

# Character: U+0444
u+0444:
    @@@@@@@@@@@@@@@@@@
    ..................
    ..................
    ..................
    ..................
    ..................
    ..................
    ..................
    ..................
    ......@@@@@.......
    .......@@@........
    ...@@@@@@@@@@@....
    ..@@@..@@@..@@@...
    .@@@...@@@...@@@..
    .@@@...@@@...@@@..
    .@@@...@@@...@@@..
    .@@@...@@@...@@@..
    ..@@@..@@@..@@@...
    ...@@@@@@@@@@@....
    .......@@@........
    .......@@@........
    .......@@@........
    .......@@@........
    .......@@@........
    .......@@@........
    ......@@@@@.......

# Character: U+0445
u+0445:
    @@@@@@@@@@@@@
    .............
    .............
    .............
    .............
    .............
    .............
    .............
    .............
    .............
    .@@@@@.@@@@@.
    ..@@@...@@...
    ...@@@.@@....
    ...@@@@@@....
    ....@@@@.....
    .....@@@.....
    .....@@@@....
    ....@@@@@....
    ...@@..@@@...
    ..@@@...@@@..
    .@@@@@.@@@@@.
    .............
    .............
    .............
    .............
    .............

# Character: U+0446
u+0446:
    @@@@@@@@@@@@@@
    ..............
    ..............
    ..............
    ..............
    ..............
    ..............
    ..............
    ..............
    ..............
    .@@@@@..@@@@@.
    ..@@@....@@@..
    ..@@@....@@@..
    ..@@@....@@@..
    ..@@@....@@@..
    ..@@@....@@@..
    ..@@@....@@@..
    ..@@@....@@@..
    ..@@@....@@@..
    ..@@@....@@@..
    .@@@@@@@@@@@@.
    ..........@@@.
    ...........@@.
    ...........@@.
    ..............
    ..............

# Character: U+0447
u+0447:
    @@@@@@@@@@@@@@
    ..............
    ..............
    ..............
    ..............
    ..............
    ..............
    ..............
    ..............
    ..............
    .@@@@@..@@@@@.
    ..@@@....@@@..
    ..@@@....@@@..
    ..@@@....@@@..
    ..@@@....@@@..
    ...@@@...@@@..
    ....@@@@@@@@..
    .........@@@..
    .........@@@..
    .........@@@..
    ........@@@@@.
    ..............
    ..............
    ..............
    ..............
    ..............

# Character: U+0448
u+0448:
    @@@@@@@@@@@@@@@@@@@
    ...................
    ...................
    ...................
    ...................
    ...................
    ...................
    ...................
    ...................
    ...................
    .@@@@@.@@@@@.@@@@@.
    ..@@@...@@@...@@@..
    ..@@@...@@@...@@@..
    ..@@@...@@@...@@@..
    ..@@@...@@@...@@@..
    ..@@@...@@@...@@@..
    ..@@@...@@@...@@@..
    ..@@@...@@@...@@@..
    ..@@@...@@@...@@@..
    ..@@@...@@@...@@@..
    .@@@@@@@@@@@@@@@@@.
    ...................
    ...................
    ...................
    ...................
    ...................

# Character: U+0449
u+0449:
    @@@@@@@@@@@@@@@@@@@
    ...................
    ...................
    ...................
    ...................
    ...................
    ...................
    ...................
    ...................
    ...................
    .@@@@@.@@@@@.@@@@@.
    ..@@@...@@@...@@@..
    ..@@@...@@@...@@@..
    ..@@@...@@@...@@@..
    ..@@@...@@@...@@@..
    ..@@@...@@@...@@@..
    ..@@@...@@@...@@@..
    ..@@@...@@@...@@@..
    ..@@@...@@@...@@@..
    ..@@@...@@@...@@@..
    .@@@@@@@@@@@@@@@@@.
    ...............@@@.
    ................@@.
    ................@@.
    ...................
    ...................

# Character: U+044A
u+044a:
    @@@@@@@@@@@@@@@
    ...............
    ...............
    ...............
    ...............
    ...............
    ...............
    ...............
    ...............
    ...............
    .@@@@@@@.......
    .@@@@@@........
    .@@.@@@........
    .@@.@@@........
    ....@@@........
    ....@@@@@@@@@..
    ....@@@....@@@.
    ....@@@....@@@.
    ....@@@....@@@.
    ....@@@....@@@.
    ...@@@@@@@@@@..
    ...............
    ...............
    ...............
    ...............
    ...............

# Character: U+044B
u+044b:
    @@@@@@@@@@@@@@@@@
    .................
    .................
    .................
    .................
    .................
    .................
    .................
    .................
    .................
    .@@@@@......@@@@@
    ..@@@........@@@.
    ..@@@........@@@.
    ..@@@........@@@.
    ..@@@........@@@.
    ..@@@@@@@@@..@@@.
    ..@@@....@@@.@@@.
    ..@@@....@@@.@@@.
    ..@@@....@@@.@@@.
    ..@@@....@@@.@@@.
    .@@@@@@@@@@.@@@@@
    .................
    .................
    .................
    .................
    .................

# Character: U+044C
u+044c:
    @@@@@@@@@@@@@
    .............
    .............
    .............
    .............
    .............
    .............
    .............
    .............
    .............
    .@@@@@.......
    ..@@@........
    ..@@@........
    ..@@@........
    ..@@@........
    ..@@@@@@@@@..
    ..@@@....@@@.
    ..@@@....@@@.
    ..@@@....@@@.
    ..@@@....@@@.
    .@@@@@@@@@@..
    .............
    .............
    .............
    .............
    .............

# Character: U+044D
u+044d:
    @@@@@@@@@@@@
    ............
    ............
    ............
    ............
    ............
    ............
    ............
    ............
    ............
    ...@@@@@@...
    .@@@...@@@..
    .@@.....@@@.
    ........@@@.
    ........@@@.
    .....@@@@@@.
    ........@@@.
    ........@@@.
    .@@.....@@@.
    .@@@...@@@..
    ...@@@@@@...
    ............
    ............
    ............
    ............
    ............

# Character: U+044E
u+044e:
    @@@@@@@@@@@@@@@@
    ................
    ................
    ................
    ................
    ................
    ................
    ................
    ................
    ................
    .@@@@@..@@@@@...
    ..@@@..@@@.@@@..
    ..@@@.@@@...@@@.
    ..@@@.@@@...@@@.
    ..@@@.@@@...@@@.
    ..@@@@@@@...@@@.
    ..@@@.@@@...@@@.
    ..@@@.@@@...@@@.
    ..@@@.@@@...@@@.
    ..@@@..@@@.@@@..
    .@@@@@..@@@@@...
    ................
    ................
    ................
    ................
    ................

# Character: U+044F
u+044f:
    @@@@@@@@@@@@@
    .............
    .............
    .............
    .............
    .............
    .............
    .............
    .............
    .............
    ..@@@@@@@@@@.
    .@@@....@@@..
    .@@@....@@@..
    .@@@....@@@..
    .@@@....@@@..
    ..@@@@@@@@@..
    .....@@@@@@..
    ....@@@.@@@..
    ...@@@..@@@..
    ..@@@...@@@..
    .@@@@..@@@@@.
    .............
    .............
    .............
    .............
    .............

# Character: U+0451
u+0451:
    ............
    ............
    ............
    ............
    ............
    ............
    ...@@@.@@@..
    ...@@@.@@@..
    ............
    ............
    ....@@@@@...
    ..@@@..@@@..
    ..@@....@@@.
    .@@@....@@@.
    .@@@@@@@@@@.
    .@@@........
    .@@@@.......
    .@@@@.......
    ..@@@@...@@.
    ..@@@@@.@@@.
    ....@@@@@...
    ............
    ............
    ............
    ............
    ............

# Character: U+0452
u+0452:
    .............
    .............
    .............
    .............
    ...@@........
    .@@@@........
    ..@@@........
    @@@@@@@@@@...
    ..@@@........
    ..@@@........
    ..@@@.@@@@...
    ..@@@@@@@@@..
    ..@@@@..@@@..
    ..@@@...@@@..
    ..@@@...@@@..
    ..@@@...@@@..
    ..@@@...@@@..
    ..@@@...@@@..
    ..@@@...@@@..
    ..@@@...@@@..
    .@@@@@..@@@..
    ........@@@..
    ........@@@..
    ...@@@..@@@..
    ...@@@.@@@...
    ....@@@@@....

# Character: U+0453
u+0453:
    ...........
    ...........
    ...........
    ...........
    ...........
    ...........
    ......@@...
    .....@@@...
    ....@@.....
    ...........
    .@@@@@@@@@.
    ..@@@..@@@.
    ..@@@...@@.
    ..@@@......
    ..@@@......
    ..@@@......
    ..@@@......
    ..@@@......
    ..@@@......
    ..@@@......
    .@@@@@.....
    ...........
    ...........
    ...........
    ...........
    ...........

# Character: U+0454
u+0454:
    ............
    ............
    ............
    ............
    ............
    ............
    ............
    ............
    ............
    ............
    ...@@@@@@...
    ..@@@...@@@.
    .@@@.....@@.
    .@@@........
    .@@@........
    .@@@@@@.....
    .@@@........
    .@@@........
    .@@@.....@@.
    ..@@@...@@@.
    ...@@@@@@...
    ............
    ............
    ............
    ............
    ............

# Character: U+0455
u+0455:
    ...........
    ...........
    ...........
    ...........
    ...........
    ...........
    ...........
    ...........
    ...........
    ...........
    ...@@@@@@..
    ..@@@.@@@..
    .@@@...@@..
    .@@@@......
    ..@@@@@....
    ....@@@@@..
    ......@@@@.
    .@@....@@@.
    .@@@...@@@.
    .@@@@.@@@..
    .@@.@@@@...
    ...........
    ...........
    ...........
    ...........
    ...........

# Character: U+0456
u+0456:
    .......
    .......
    .......
    .......
    ..@@@..
    ..@@@..
    .......
    .......
    .......
    .......
    ...@@..
    .@@@@..
    ..@@@..
    ..@@@..
    ..@@@..
    ..@@@..
    ..@@@..
    ..@@@..
    ..@@@..
    ..@@@..
    .@@@@@.
    .......
    .......
    .......
    .......
    .......

# Character: U+0457
u+0457:
    .......
    .......
    .......
    .......
    @@@.@@@
    @@@.@@@
    .......
    .......
    .......
    .......
    ...@@..
    .@@@@..
    ..@@@..
    ..@@@..
    ..@@@..
    ..@@@..
    ..@@@..
    ..@@@..
    ..@@@..
    ..@@@..
    .@@@@@.
    .......
    .......
    .......
    .......
    .......

# Character: U+0458
u+0458:
    .......
    .......
    .......
    .......
    ..@@@..
    ..@@@..
    .......
    .......
    .......
    .......
    ...@@..
    .@@@@..
    ..@@@..
    ..@@@..
    ..@@@..
    ..@@@..
    ..@@@..
    ..@@@..
    ..@@@..
    ..@@@..
    ..@@@..
    ..@@@..
    ..@@@..
    ..@@@..
    @@@@@..
    @@@@...

# Character: U+0459
u+0459:
    ...................
    ...................
    ...................
    ...................
    ...................
    ...................
    ...................
    ...................
    ...................
    ...................
    ..@@@@@@@@@@.......
    ...@@...@@@........
    ...@@...@@@........
    ...@@...@@@........
    ...@@...@@@........
    ...@@...@@@@@@@@@..
    ...@@...@@@....@@@.
    ...@@...@@@....@@@.
    ...@@...@@@....@@@.
    .@@@@...@@@....@@@.
    .@@@...@@@@@@@@@@..
    ...................
    ...................
    ...................
    ...................
    ...................

# Character: U+045A
u+045a:
    ....................
    ....................
    ....................
    ....................
    ....................
    ....................
    ....................
    ....................
    ....................
    ....................
    .@@@@@..@@@@@.......
    ..@@@....@@@........
    ..@@@....@@@........
    ..@@@....@@@........
    ..@@@....@@@........
    ..@@@@@@@@@@@@@@@@..
    ..@@@....@@@....@@@.
    ..@@@....@@@....@@@.
    ..@@@....@@@....@@@.
    ..@@@....@@@....@@@.
    .@@@@@..@@@@@@@@@@..
    ....................
    ....................
    ....................
    ....................
    ....................

# Character: U+045B
u+045b:
    @@@..........
    .............
    .............
    .............
    ...@@........
    ..@@@........
    @@@@@@@@@....
    ..@@@........
    ..@@@........
    ..@@@........
    ..@@@.@@@@...
    ..@@@@@@@@@..
    ..@@@@..@@@..
    ..@@@...@@@..
    ..@@@...@@@..
    ..@@@...@@@..
    ..@@@...@@@..
    ..@@@...@@@..
    ..@@@...@@@..
    ..@@@...@@@..
    .@@@@@.@@@@@.
    .............
    .............
    .............
    .............
    .............

# Character: U+045C
u+045c:
    ........@@@..
    .............
    .............
    .............
    .............
    .............
    ......@@.....
    .....@@@.....
    ....@@.......
    .............
    .@@@@.@@@@@..
    ..@@@..@@....
    ..@@@.@@.....
    ..@@@@@......
    ..@@@@@......
    ..@@@@@......
    ..@@@@@@.....
    ..@@@.@@@....
    ..@@@..@@@...
    ..@@@...@@@..
    .@@@@@.@@@@@@
    .............
    .............
    .............
    .............
    .............

# Character: U+045E
u+045e:
    ............
    ............
    ............
    ............
    ............
    ............
    ............
    ...@@...@@..
    ....@@.@@...
    .....@@@....
    @@@@@...@@@@
    .@@@.....@@.
    .@@@.....@@.
    ..@@@...@@..
    ..@@@...@@..
    ...@@@.@@...
    ...@@@.@@...
    ....@@@@....
    ....@@@@....
    .....@@.....
    .....@@.....
    ....@@......
    ....@@......
    ...@@.......
    @@@@@.......
    @@@@........

# Character: U+045F
u+045f:
    ..............
    ..............
    ..............
    ..............
    ..............
    ..............
    ..............
    ..............
    ..............
    ..............
    .@@@@@..@@@@@.
    ..@@@....@@@..
    ..@@@....@@@..
    ..@@@....@@@..
    ..@@@....@@@..
    ..@@@....@@@..
    ..@@@....@@@..
    ..@@@....@@@..
    ..@@@....@@@..
    ..@@@....@@@..
    .@@@@@@@@@@@@.
    .....@@@@.....
    ......@@......
    ......@@......
    ..............
    ..............

# Character: U+0490
u+0490:
    ......@@@.@@@...
    ................
    .............@@.
    .............@@.
    ............@@@.
    .@@@@@@@@@@@@@@.
    ...@@@..........
    ...@@@..........
    ...@@@..........
    ...@@@..........
    ...@@@..........
    ...@@@..........
    ...@@@..........
    ...@@@..........
    ...@@@..........
    ...@@@..........
    ...@@@..........
    ...@@@..........
    ...@@@..........
    ...@@@..........
    .@@@@@@@@.......
    ................
    ................
    ................
    ................
    ................

# Character: U+0491
u+0491:
    ...........
    ...........
    ...........
    ...........
    ...........
    ...........
    ...........
    ...........
    ........@@.
    .......@@@.
    .@@@@@@@@@.
    ..@@@......
    ..@@@......
    ..@@@......
    ..@@@......
    ..@@@......
    ..@@@......
    ..@@@......
    ..@@@......
    ..@@@......
    .@@@@@.....
    ...........
    ...........
    ...........
    ...........
    ...........

# Character: U+2013
u+2013:
    .........
    .........
    .........
    .........
    .........
    .........
    .........
    .........
    .........
    .........
    .........
    .........
    .........
    .@@@@@@@.
    .........
    .........
    .........
    .........
    .........
    .........
    .........
    .........
    .........
    .........
    .........
    .........

# Character: U+2014
u+2014:
    ...............
    ...............
    ...............
    ...............
    ...............
    ...............
    ...............
    ...............
    ...............
    ...............
    ...............
    ...............
    ...............
    .@@@@@@@@@@@@@.
    ...............
    ...............
    ...............
    ...............
    ...............
    ...............
    ...............
    ...............
    ...............
    ...............
    ...............
    ...............

# Character: U+2018
u+2018:
    .......
    .......
    .......
    .......
    ..@@...
    .@@....
    .@@@...
    .@@@@..
    .@@@@..
    ..@@...
    .......
    .......
    .......
    .......
    .......
    .......
    .......
    .......
    .......
    .......
    .......
    .......
    .......
    .......
    .......
    .......
    .......

# Character: U+2019
u+2019:
    .......
    .......
    .......
    .......
    ...@@..
    ..@@@@.
    ..@@@@.
    ...@@@.
    ....@@.
    ...@@..
    .......
    .......
    .......
    .......
    .......
    .......
    .......
    .......
    .......
    .......
    .......
    .......
    .......
    .......
    .......
    .......
    .......

# Character: U+201A
u+201a:
    ........
    ........
    ........
    ........
    ........
    ........
    ........
    ........
    ........
    ........
    ........
    ........
    ........
    ........
    ........
    ........
    ........
    ...@@...
    ..@@@@..
    ..@@@@..
    ...@@@..
    ....@@..
    ...@@...
    ........
    ........
    ........

# Character: U+201C
u+201c:
    ............
    ............
    ............
    ............
    ..@@...@@...
    .@@...@@....
    .@@@..@@@...
    .@@@@.@@@@..
    .@@@@.@@@@..
    ..@@...@@...
    ............
    ............
    ............
    ............
    ............
    ............
    ............
    ............
    ............
    ............
    ............
    ............
    ............
    ............
    ............
    ............

# Character: U+201D
u+201d:
    ............
    ............
    ............
    ............
    ...@@...@@..
    ..@@@@.@@@@.
    ..@@@@.@@@@.
    ...@@@..@@@.
    ....@@...@@.
    ...@@...@@..
    ............
    ............
    ............
    ............
    ............
    ............
    ............
    ............
    ............
    ............
    ............
    ............
    ............
    ............
    ............
    ............

# Character: U+201E
u+201e:
    .............
    .............
    .............
    .............
    .............
    .............
    .............
    .............
    .............
    .............
    .............
    .............
    .............
    .............
    .............
    .............
    .............
    ...@@...@@...
    ..@@@@.@@@@..
    ..@@@@.@@@@..
    ...@@@..@@@..
    ....@@...@@..
    ...@@...@@...
    .............
    .............
    .............

# Character: U+2020
u+2020:
    .............
    .............
    .............
    ....@@@@@....
    .....@@@.....
    .....@@@.....
    .@@@@@@@@@@@.
    .@@@@@@@@@@@.
    .....@@@.....
    .....@@@.....
    .....@@@.....
    ....@@@@@....
    .....@@@.....
    .....@@@.....
    .....@@@.....
    .....@@@.....
    .....@@@.....
    .....@@@.....
    .....@@@.....
    .....@@@.....
    .....@@@.....
    .............
    .............
    .............
    .............
    .............

# Character: U+2021
u+2021:
    ......@@.....
    .............
    .............
    ....@@@@@....
    .....@@@.....
    .....@@@.....
    .@@@@@@@@@@@.
    .@@@@@@@@@@@.
    .....@@@.....
    .....@@@.....
    .....@@@.....
    ....@@@@@....
    ....@@@@@....
    .....@@@.....
    .....@@@.....
    .....@@@.....
    ..@@@@@@@@@@.
    ..@@@@@@@@@@.
    .....@@@.....
    .....@@@.....
    ....@@@@@....
    .............
    .............
    .............
    .............
    .............

# Character: U+2022
u+2022:
    ............
    ............
    ............
    ............
    ............
    ............
    ............
    ............
    ............
    ............
    ............
    ....@@@@....
    ...@@@@@@...
    ...@@@@@@...
    ...@@@@@@...
    ....@@@@....
    ............
    ............
    ............
    ............
    ............
    ............
    ............
    ............
    ............
    ............

# Character: U+2026
u+2026:
    ..................
    ..................
    ..................
    ..................
    ..................
    ..................
    ..................
    ..................
    ..................
    ..................
    ..................
    ..................
    ..................
    ..................
    ..................
    ..................
    ..................
    ...@@...@@...@@...
    ..@@@@.@@@@.@@@@..
    ..@@@@.@@@@.@@@@..
    ...@@...@@...@@...
    ..................
    ..................
    ..................
    ..................
    ..................

# Character: U+2030
u+2030:
    ...........................
    ...........................
    ...........................
    ...........................
    .....@@@@....@@@...........
    ....@@@@@@@@@@@@...........
    ...@@@..@@..@@@............
    ..@@@...@@..@@@............
    ..@@@...@@.@@@.............
    ..@@@..@@.@@@..............
    ..@@@.@@.@@@...............
    ...@@@@..@@@...............
    ........@@@................
    .......@@@..@@@@....@@@@...
    .......@@@.@@@@@@..@@@@@@..
    ......@@@.@@@..@@.@@@..@@..
    .....@@@.@@@...@@@@@...@@..
    .....@@@.@@@...@@@@@...@@..
    ....@@@..@@@..@@.@@@..@@...
    ...@@@...@@@.@@..@@@.@@....
    ...@@@....@@@@....@@@@.....
    ...........................
    ...........................
    ...........................
    ...........................
    ...........................

# Character: U+2039
u+2039:
    ...........
    ...........
    ...........
    ...........
    ...........
    ...........
    ...........
    ...........
    ...........
    ......@@@..
    .....@@@...
    ....@@@....
    ...@@@.....
    ..@@@......
    ..@@@......
    ...@@@.....
    ....@@@....
    .....@@@...
    ......@@@..
    ...........
    ...........
    ...........
    ...........
    ...........
    ...........
    ...........

# Character: U+203A
u+203a:
    ...........
    ...........
    ...........
    ...........
    ...........
    ...........
    ...........
    ...........
    ...........
    ..@@@......
    ...@@@.....
    ....@@@....
    .....@@@...
    ......@@@..
    ......@@@..
    .....@@@...
    ....@@@....
    ...@@@.....
    ..@@@......
    ...........
    ...........
    ...........
    ...........
    ...........
    ...........
    ...........

# Character: U+2116
u+2116:
    ........................
    ........................
    ........................
    ........................
    ........................
    .@@@@......@@@@@@.@@@@..
    ..@@@@.......@@..@@..@@.
    ...@@@@......@@..@@..@@.
    ...@@@@@.....@@..@@..@@.
    ...@@@@@.....@@...@@@@..
    ...@@@@@@....@@.........
    ...@@.@@@@...@@.........
    ...@@.@@@@@..@@..@@@@@@.
    ...@@..@@@@..@@.........
    ...@@...@@@@.@@.........
    ...@@....@@@@@@.........
    ...@@.....@@@@@.........
    ...@@.....@@@@@.........
    ...@@......@@@@.........
    ...@@.......@@@.........
    .@@@@@@......@@.........
    ........................
    ........................
    ........................
    ........................
    ........................

# Character: U+2122
u+2122:
    .........................
    .........................
    .........................
    .........................
    .@@@@@@@@@@@@@@....@@@@@.
    .@@.@@@.@@.@@@@...@@@@@..
    ....@@@....@@@@@..@@@@@..
    ....@@@....@@@@@.@@.@@@..
    ....@@@....@@.@@@@@.@@@..
    ....@@@....@@..@@@..@@@..
    ....@@@....@@..@@@..@@@..
    ....@@@....@@.......@@@..
    ...@@@@@..@@@@.....@@@@@.
    .........................
    .........................
    .........................
    .........................
    .........................
    .........................
    .........................
    .........................
    .........................
    .........................
    .........................
    .........................
    .........................
